<?xml version="1.0" encoding="utf-8"?>
<!-- Generator: Adobe Illustrator 27.5.0, SVG Export Plug-In . SVG Version: 6.00 Build 0)  -->
<svg version="1.1" xmlns="http://www.w3.org/2000/svg" xmlns:xlink="http://www.w3.org/1999/xlink" x="0px" y="0px"
	 viewBox="0 0 3710 3710" style="disable-background" xml:space="preserve">
<g id="Background">
	<g>
		<g>
			<rect style="fill:none" width="3710" height="3710"/>
		</g>
	</g>
</g>
<g id="Illustration">
	<g>
		<linearGradient id="SVGID_1_" gradientUnits="userSpaceOnUse" x1="2057.1338" y1="937.7265" x2="1339.6017" y2="3928.6934">
			<stop  offset="0" style="stop-color:#FFC444"/>
			<stop  offset="0.9964" style="stop-color:#F36F56"/>
		</linearGradient>
		<path style="fill:url(#SVGID_1_);" d="M1533.399,917.387c-129.464,15.086-173.214-231.124-393.493-286.531
			c-149.003-37.479-279.326,37.363-304.7,52.669c-104.246,62.887-197.107,182.66-205.313,317.722
			c-12.371,203.627,174.902,323.16,118.092,421.005c-43.931,75.664-174.312,35.853-209.98,116.975
			c-29.411,66.889,32.013,155.859,69.229,209.762c101.795,147.443,188.49,135.508,220.059,212.572
			c61.676,150.554-232.854,284.849-301.622,580.516c-52.607,226.184,33.721,517.511,240.175,672.184
			c247.311,185.282,593.566,119.454,793.06,0c216.338-129.54,182.052-275.42,356.181-321.704
			c209.999-55.818,315.115,141.665,708.784,163.092c128.64,7.002,266.382,12.618,339.883-75.529
			c103.468-124.087,11.958-352.829-2.537-389.061c-109.337-273.3-359.56-362.586-323.434-465.062
			c22.707-64.414,140.288-82.23,156.261-84.65c118.662-17.98,175.162,56.565,260.697,25.163
			c50.166-18.417,103.318-70.707,111.561-128.28c23.855-166.622-345.336-259.595-338.799-436.47
			c4.035-109.2,146.392-117.982,272.205-289.03c124.068-168.675,211.171-466.766,83.082-642
			c-140.968-192.856-510.79-193.408-737.561-58.413c-269.863,160.648-312.175,498.39-440.699,481.379
			c-111.705-14.785-132.047-276.844-241.694-279.459C1668.692,711.99,1645.859,904.282,1533.399,917.387z"/>
		
			<linearGradient id="SVGID_00000168115972309066118610000012499088914014724784_" gradientUnits="userSpaceOnUse" x1="3256.3457" y1="1225.4177" x2="2538.8118" y2="4216.3921">
			<stop  offset="0" style="stop-color:#FFC444"/>
			<stop  offset="0.9964" style="stop-color:#F36F56"/>
		</linearGradient>
		<path style="fill:url(#SVGID_00000168115972309066118610000012499088914014724784_);" d="M2977.198,2167.527
			c-38.412-12.824-195.101-65.132-220.064-22.862c-27.969,47.36,106.219,218.867,282.449,257.954
			c89.527,19.857,209.437,9.873,222.009-32.992C3277.715,2314.652,3114.942,2213.511,2977.198,2167.527z"/>
		
			<linearGradient id="SVGID_00000107576008270389734030000014009154972514340530_" gradientUnits="userSpaceOnUse" x1="1481.4026" y1="799.61" x2="763.8683" y2="3790.5854">
			<stop  offset="0" style="stop-color:#FFC444"/>
			<stop  offset="0.9964" style="stop-color:#F36F56"/>
		</linearGradient>
		<path style="fill:url(#SVGID_00000107576008270389734030000014009154972514340530_);" d="M1612.933,711.92
			c-4.9,48.295-47.405,103.711-103.53,103.53c-58.429-0.189-94.289-60.512-103.529-103.53
			c-12.067-56.174,11.945-126.174,56.647-141.191C1522.751,550.497,1621.26,629.834,1612.933,711.92z"/>
		
			<linearGradient id="SVGID_00000027571654318901624110000017742486990202527912_" gradientUnits="userSpaceOnUse" x1="1986.8821" y1="920.8753" x2="1269.3501" y2="3911.8418">
			<stop  offset="0" style="stop-color:#FFC444"/>
			<stop  offset="0.9964" style="stop-color:#F36F56"/>
		</linearGradient>
		<path style="fill:url(#SVGID_00000027571654318901624110000017742486990202527912_);" d="M2046.072,570.73
			c-54.582,17.09-137.66,43.104-154.835,113.294c-16.105,65.815,30.802,149.756,86.859,162.388
			c109.549,24.688,272.273-218.855,230.365-279.459C2181.704,528.261,2070.753,563.001,2046.072,570.73z"/>
		<g>
			<g>
				<g>
					
						<linearGradient id="SVGID_00000114769401099245073300000016134484114729795769_" gradientUnits="userSpaceOnUse" x1="-2675.0095" y1="1965.5486" x2="-3126.03" y2="2497.4583" gradientTransform="matrix(0.9408 -0.3389 0.3389 0.9408 3109.0618 -379.3388)">
						<stop  offset="0" style="stop-color:#311944"/>
						<stop  offset="1" style="stop-color:#893976"/>
					</linearGradient>
					<path style="fill:url(#SVGID_00000114769401099245073300000016134484114729795769_);" d="M1492.966,3176.289
						c-68.866,10.975-145.564-10.98-193.707-59.655l-647.223-654.432c-56.145-56.774-52.497-144.252,9.031-197.177
						c63.173-54.331,194.413-64.394,255-5.742l700.864,678.533c69.611,67.398,58.103,161.325-24.287,207.814
						C1572.623,3156.926,1515.928,3172.629,1492.966,3176.289z"/>
					
						<linearGradient id="SVGID_00000146461000301157967330000017336779601947581359_" gradientUnits="userSpaceOnUse" x1="-2737.678" y1="1912.4104" x2="-3184.6428" y2="2439.5374" gradientTransform="matrix(0.9408 -0.3389 0.3389 0.9408 3109.0618 -379.3388)">
						<stop  offset="0" style="stop-color:#311944"/>
						<stop  offset="1" style="stop-color:#893976"/>
					</linearGradient>
					<path style="opacity:0.3;fill:url(#SVGID_00000146461000301157967330000017336779601947581359_);" d="M661.067,2265.026
						c63.173-54.331,194.413-64.394,254.999-5.742l638.169,617.834c-67.584,2.266-139.686,21.737-228.205-11.842
						c-144.175-54.69-132.457-176.985-256.286-247.273c-55.727-31.633-143.984-55.241-288.63-25.284l-129.079-130.517
						C595.891,2405.428,599.538,2317.95,661.067,2265.026z"/>
					
						<linearGradient id="SVGID_00000089535050300275159500000011591342842922252931_" gradientUnits="userSpaceOnUse" x1="-539.7438" y1="1623.7417" x2="-813.8105" y2="1946.9615" gradientTransform="matrix(0.9408 -0.3389 0.3389 0.9408 680.4394 495.6096)">
						<stop  offset="0" style="stop-color:#311944"/>
						<stop  offset="1" style="stop-color:#893976"/>
					</linearGradient>
					<path style="fill:url(#SVGID_00000089535050300275159500000011591342842922252931_);" d="M844.04,2334.284
						c40.235,111.681-14.569,233.71-122.406,272.56c-107.838,38.85-227.874-20.191-268.108-131.871
						c-40.234-111.681,14.569-233.709,122.406-272.56C683.769,2163.563,803.806,2222.604,844.04,2334.284z"/>
					
						<linearGradient id="SVGID_00000008107136034522900810000011584841151219166143_" gradientUnits="userSpaceOnUse" x1="-426.8661" y1="1880.21" x2="864.0273" y2="1880.21" gradientTransform="matrix(0.9655 -0.2604 0.2604 0.9655 496.7162 392.495)">
						<stop  offset="0.0036" style="stop-color:#E38DDD"/>
						<stop  offset="1" style="stop-color:#9571F6"/>
					</linearGradient>
					<path style="fill:url(#SVGID_00000008107136034522900810000011584841151219166143_);" d="M566.511,2211.48
						c3.072,150.376,50.28,281.414,143.747,399.002l1304.378,92.02l-491.95-1411.328L566.511,2211.48z"/>
					
						<linearGradient id="SVGID_00000108306867777640864150000016880224113081446807_" gradientUnits="userSpaceOnUse" x1="-2888.5842" y1="1076.2167" x2="-2503.6816" y2="3205.2024" gradientTransform="matrix(0.9408 -0.3389 0.3389 0.9408 3109.0618 -379.3388)">
						<stop  offset="0" style="stop-color:#AA80F9"/>
						<stop  offset="0.9964" style="stop-color:#6165D7"/>
					</linearGradient>
					<path style="opacity:0.3;fill:url(#SVGID_00000108306867777640864150000016880224113081446807_);" d="M1504.194,2403.35
						c-133.61-10.575-233.336-178.651-360.789-138.941c-95.659,29.805-85.79,143.97-178.118,163.161
						c-91.08,18.931-145.489-87.437-251.698-91.311c-46.891-1.709-87.435,17.66-121.985,47.444
						c23.052,80.696,62.32,155.909,118.653,226.779l1304.378,92.02l-254.862-449.581
						C1655.093,2375.568,1571.163,2408.65,1504.194,2403.35z"/>
					
						<ellipse transform="matrix(0.9408 -0.3389 0.3389 0.9408 -570.6497 719.905)" style="fill:#D8DEE8;" cx="1775.801" cy="1993.753" rx="562.67" ry="746.783"/>
					
						<linearGradient id="SVGID_00000029767905251597059530000012682512723405360010_" gradientUnits="userSpaceOnUse" x1="2110.615" y1="1763.2396" x2="911.0007" y2="1793.802" gradientTransform="matrix(-0.9408 0.3389 0.3389 0.9408 2492.2324 -157.5933)">
						<stop  offset="0" style="stop-color:#311944"/>
						<stop  offset="1" style="stop-color:#893976"/>
					</linearGradient>
					<path style="fill:url(#SVGID_00000029767905251597059530000012682512723405360010_);" d="M2020.329,2672.494
						c62.068-22.361,117.088-60.903,163.53-114.557c47.266-54.606,83.52-122.022,107.751-200.377
						c50.936-164.714,42.449-356.853-23.902-541.024c-66.35-184.17-182.351-337.577-326.631-431.96
						c-68.635-44.898-139.554-73.703-210.785-85.619c-69.989-11.708-136.949-6.305-199.017,16.055
						c-62.068,22.36-117.088,60.903-163.529,114.557c-47.266,54.607-83.52,122.023-107.751,200.377
						c-21.298,68.871-32.207,142.536-32.841,218.41c-0.882,105.587,133.733,166.982,172.341,274.146
						c41.053,113.952-14.486,264.593,59.52,348.297c45.603,51.58,96.502,96.146,151.512,132.131
						c68.635,44.898,139.554,73.703,210.786,85.619C1891.302,2700.258,1958.261,2694.855,2020.329,2672.494z"/>
					<g>
						<defs>
							<path id="SVGID_00000081649194541704004780000015686844965615110826_" d="M2020.329,2672.494
								c62.068-22.361,117.088-60.903,163.53-114.557c47.266-54.606,83.52-122.022,107.751-200.377
								c50.936-164.714,42.449-356.853-23.902-541.024c-66.35-184.17-182.351-337.577-326.631-431.96
								c-68.635-44.898-139.554-73.703-210.785-85.619c-69.989-11.708-136.949-6.305-199.017,16.055
								c-62.068,22.36-117.088,60.903-163.529,114.557c-47.266,54.607-83.52,122.023-107.751,200.377
								c-50.937,164.713-42.449,356.853,23.901,541.023c66.351,184.171,182.351,337.578,326.631,431.961
								c68.635,44.898,139.554,73.703,210.786,85.619C1891.302,2700.258,1958.261,2694.855,2020.329,2672.494z"/>
						</defs>
						<clipPath id="SVGID_00000062879048272952400740000014335232704224885376_">
							<use xlink:href="#SVGID_00000081649194541704004780000015686844965615110826_"  style="overflow:visible;"/>
						</clipPath>
						
							<linearGradient id="SVGID_00000137126603588720583080000005053553806174666669_" gradientUnits="userSpaceOnUse" x1="160.0164" y1="1911.9611" x2="866.067" y2="1911.9611" gradientTransform="matrix(0.9655 -0.2604 0.2604 0.9655 496.7162 392.495)">
							<stop  offset="0" style="stop-color:#FF9085"/>
							<stop  offset="1" style="stop-color:#FB6FBB"/>
						</linearGradient>
						
							<path style="clip-path:url(#SVGID_00000062879048272952400740000014335232704224885376_);fill:url(#SVGID_00000137126603588720583080000005053553806174666669_);" d="
							M1822.689,1987.275c64.128,178.001-36.897,374.075-222.982,437.042c-183.206,61.993-380.197-28.733-442.539-201.78
							c-62.343-173.047,32.155-366.815,213.59-433.722C1555.045,1720.855,1758.562,1809.274,1822.689,1987.275z"/>
						
							<linearGradient id="SVGID_00000070084593636675973380000014903460608337206437_" gradientUnits="userSpaceOnUse" x1="-2311.4705" y1="1254.1923" x2="-2118.4543" y2="2321.8088" gradientTransform="matrix(0.9408 -0.3389 0.3389 0.9408 3109.0618 -379.3388)">
							<stop  offset="0" style="stop-color:#FF9085"/>
							<stop  offset="1" style="stop-color:#FB6FBB"/>
						</linearGradient>
						
							<path style="opacity:0.3;clip-path:url(#SVGID_00000062879048272952400740000014335232704224885376_);fill:url(#SVGID_00000070084593636675973380000014903460608337206437_);" d="
							M1792.452,1994.896c47.619,132.179,11.396,263.801-79.604,293.561c-89.593,29.299-198.74-51.449-245.034-179.949
							c-46.294-128.5-13.255-259.008,75.022-291.958C1632.5,1783.084,1744.832,1862.718,1792.452,1994.896z"/>
					</g>
				</g>
			</g>
			<g>
				
					<linearGradient id="SVGID_00000064347163173026667090000013147089168618799024_" gradientUnits="userSpaceOnUse" x1="-1437.8292" y1="-1101.8556" x2="-3480.137" y2="4003.9163" gradientTransform="matrix(-0.9932 0.1165 0.1165 0.9932 -39.8409 234.2606)">
					<stop  offset="0" style="stop-color:#311944"/>
					<stop  offset="1" style="stop-color:#893976"/>
				</linearGradient>
				<path style="fill:url(#SVGID_00000064347163173026667090000013147089168618799024_);" d="M1953.755,1828.474
					c0,0,88.225-70.27,132.813-169.274c-95.551-86.22-158.919-198.507-173.687-324.381
					c-35.41-301.822,219.375-588.481,584.562-642.564c373.514-55.315,721.552,151.161,775.164,466.649
					c0.019,0.107,0.037,0.213,0.055,0.32c0.663,3.918,1.281,7.85,1.853,11.8c0.083,0.575,0.162,1.152,0.243,1.728
					c0.548,3.876,1.065,7.762,1.523,11.669c2.116,18.036,3.229,35.956,3.378,53.724c0.064,7.615-0.049,15.202-0.335,22.758
					c-0.573,15.113-1.841,30.102-3.779,44.944c-0.969,7.421-2.105,14.806-3.405,22.152c-0.867,4.897-1.807,9.776-2.819,14.638
					c-23.785,114.232-87.372,218.301-178.612,301.092c-1.941,1.762-3.895,3.513-5.861,5.256
					c-31.459,27.874-66.093,53.255-103.422,75.704c-2.333,1.403-4.676,2.794-7.031,4.174c-16.479,9.66-33.467,18.754-50.925,27.245
					c-7.482,3.639-15.051,7.168-22.702,10.582c-5.102,2.276-10.24,4.501-15.414,6.676c-7.761,3.262-15.604,6.408-23.524,9.435
					c-5.28,2.019-10.595,3.984-15.944,5.897c-66.856,23.902-138.977,39.442-214.533,44.947c-5.586,0.406-11.157,0.75-16.717,1.043
					c-1.618,0.085-3.228,0.136-4.844,0.212c-3.966,0.186-7.931,0.365-11.882,0.494c-1.756,0.057-3.505,0.083-5.258,0.128
					c-3.842,0.099-7.68,0.192-11.507,0.238c-1.643,0.019-3.279,0.015-4.919,0.024c-3.978,0.025-7.951,0.033-11.913-0.001
					c-1.409-0.013-2.815-0.041-4.222-0.061c-4.251-0.058-8.493-0.143-12.723-0.267c-1.079-0.032-2.155-0.072-3.232-0.108
					c-4.65-0.155-9.288-0.348-13.913-0.583c-0.631-0.032-1.261-0.067-1.892-0.1c-5.212-0.277-10.406-0.603-15.584-0.98
					c-0.03-0.001-0.059-0.003-0.089-0.006c-43.764-3.182-86.295-9.85-127.135-19.73c0.043-0.051,0.083-0.102,0.125-0.153
					c-24.123-5.865-47.668-12.87-70.577-20.903C2267.622,1840.124,2142.581,1931.232,1953.755,1828.474z"/>
				<g>
					
						<linearGradient id="SVGID_00000122701381341976520200000013545281181192753812_" gradientUnits="userSpaceOnUse" x1="-2702.1912" y1="852.5161" x2="-1764.0642" y2="2592.4634" gradientTransform="matrix(-0.9932 0.1165 0.1165 0.9932 -39.8409 234.2606)">
						<stop  offset="0" style="stop-color:#FF9085"/>
						<stop  offset="1" style="stop-color:#FB6FBB"/>
					</linearGradient>
					<path style="fill:url(#SVGID_00000122701381341976520200000013545281181192753812_);" d="M1863.797,1338.473
						c35.41,301.823,350.088,525.664,718.472,498.825c386.852-28.184,683.62-319.435,644.929-649.223
						c-38.691-329.788-395.343-548.96-778.838-492.166C2083.171,749.991,1828.386,1036.651,1863.797,1338.473z"/>
					<path style="fill:#FFFFFF;" d="M1863.797,1338.473c35.41,301.823,350.088,525.664,718.472,498.825
						c386.852-28.184,683.62-319.435,644.929-649.223c-38.691-329.788-395.343-548.96-778.838-492.166
						C2083.171,749.991,1828.386,1036.651,1863.797,1338.473z"/>
					<path style="fill:#FFFFFF;" d="M2287.377,1772.297c0,0-137.638,193.195-382.707,59.831c0,0,167.902-133.692,157.525-292.102
						L2287.377,1772.297z"/>
					<g>
						
							<linearGradient id="SVGID_00000166668805747559778930000013782522812620678585_" gradientUnits="userSpaceOnUse" x1="2287.4819" y1="696.0981" x2="2613.949" y2="1872.9019" gradientTransform="matrix(0.9994 -0.0344 0.0344 0.9994 60.8616 62.3592)">
							<stop  offset="0" style="stop-color:#FF9085"/>
							<stop  offset="1" style="stop-color:#FB6FBB"/>
						</linearGradient>
						<path style="fill:url(#SVGID_00000166668805747559778930000013782522812620678585_);" d="M2462.089,1563.474
							c-0.887-25.794,7.311-47.281,24.608-64.454c17.289-17.169,39.29-26.223,66.006-27.142
							c26.712-0.919,49.283,6.601,67.719,22.541c18.429,15.944,28.093,36.817,28.98,62.61c0.888,25.805-7.319,47.288-24.608,64.458
							c-17.297,17.17-39.298,26.22-66.009,27.139c-26.716,0.919-49.286-6.597-67.715-22.537
							C2472.633,1610.148,2462.977,1589.279,2462.089,1563.474z M2619.785,1395.751l-136.731,4.705l-39.439-519.568l179.802-6.187
							L2619.785,1395.751z"/>
					</g>
					<g style="opacity:0.3;">
						
							<linearGradient id="SVGID_00000142889328543171125930000012282982981207225220_" gradientUnits="userSpaceOnUse" x1="-2955.949" y1="949.2589" x2="-2029.4838" y2="2808.4517" gradientTransform="matrix(-0.9932 0.1165 0.1165 0.9932 -39.8409 234.2606)">
							<stop  offset="0" style="stop-color:#FF9085"/>
							<stop  offset="1" style="stop-color:#FB6FBB"/>
						</linearGradient>
						<path style="fill:url(#SVGID_00000142889328543171125930000012282982981207225220_);" d="M2401.252,1705.438
							c61.362-174.301-38.731-322.523,58.013-442.414c99.719-123.578,260.843-36.933,413.639-147.436
							c59.937-43.346,123.77-120.798,160.936-269.686c106.048,87.559,177.376,205.949,193.358,342.172
							c38.691,329.788-258.077,621.04-644.929,649.223c-85.974,6.264-168.88-1.082-245.83-19.699
							C2368.741,1779.452,2388.687,1741.129,2401.252,1705.438z"/>
					</g>
				</g>
			</g>
		</g>
		<path style="fill:#FFFFFF;" d="M1450.219,1258.44c-37.082-111.294-91.155-238.985-150.399-236.34
			c-44.209,1.974-54.799,74.895-102.056,80.57c-103.11,12.385-187.873-318.533-257.825-306.168
			c-40.091,7.087-65.15,125.136-42.971,225.597c41.142,186.364,246.866,321.388,327.654,279.311
			c60.14-31.323,35.41-152.643,85.941-166.513C1349.698,1124.157,1402.762,1186.432,1450.219,1258.44z"/>
		<path style="fill:#FFFFFF;" d="M1638.217,1193.984c20.652-114.895,10.303-148.815-5.371-155.77
			c-22.214-9.856-47.124,37.99-91.314,37.6c-75.577-0.667-130.152-141.74-134.284-139.655
			c-16.082,8.112,47.299,239.92,107.427,236.34c21.518-1.281,30.917-32.177,59.086-32.229
			C1599.955,1140.222,1622.025,1166.88,1638.217,1193.984z"/>
		<path style="fill:#FFFFFF;" d="M2357.98,2321.971c1.523-22.451,232.82-46.846,252.455,10.743
			c9.493,27.843-39.958,47.081-42.971,91.313c-7.606,111.643,293.611,192.15,284.683,225.598
			c-10.241,38.366-422.819-6.675-435.082-112.799c-6.104-52.828,90.192-93.07,75.199-145.027
			C2476.46,2337.03,2356.882,2338.166,2357.98,2321.971z"/>
		<path style="fill:#FFFFFF;" d="M2417.064,2112.488c6.269-31.347,126.095-57.308,155.77-10.743
			c14.933,23.434,6.683,64.683-16.115,80.571C2511.417,2213.886,2410.795,2143.835,2417.064,2112.488z"/>
	</g>
</g>
</svg>
