<?xml version="1.0" encoding="utf-8"?>
<!-- Generator: Adobe Illustrator 27.5.0, SVG Export Plug-In . SVG Version: 6.00 Build 0)  -->
<svg version="1.1" xmlns="http://www.w3.org/2000/svg" xmlns:xlink="http://www.w3.org/1999/xlink" x="0px" y="0px"
	 viewBox="0 0 500 500" style="disable-background" xml:space="preserve">
<g id="BACKGROUND">
	<rect style="fill:none;" width="500" height="500"/>
</g>
<g id="OBJECT">
	<g>
		<g>
			<g>
				<path style="fill:#FFEEE9;" d="M414.467,402.33c-10.48,10.61-18.88,16.4-18.88,16.4h-279.79c0,0-30.09-14.04-61.6-65.1
					c-10.69-17.32-15.15-38.76-14.47-60.1c1.31-41.57,22.13-82.76,54.42-92.4c48.87-14.58,50-66.77,113.07-82.46
					c63.07-15.68,100.34,20.33,100.34,20.33c61.62,52.82,129.79,78.26,145.28,153.94c0.27,1.33,0.52,2.66,0.73,3.97
					C461.567,344.96,434.297,382.27,414.467,402.33z"/>
				<path style="fill:#FFE0D4;" d="M414.467,405.934c-9.35,5.64-20.2,11.22-32.73,16.4h-265.94c0,0-30.09-14.04-61.6-65.1
					c-10.69-17.32-15.15-38.76-14.47-60.1c28.73,23.22,91.47,58.36,207.6,57.75c112.83-0.59,175.96-32.33,206.24-54.37
					C461.567,348.564,434.297,385.874,414.467,405.934z"/>
				<path style="fill:#D6A499;" d="M118.831,402.878c0,0-50.744,0.789-60.502,7.674c-9.758,6.885-8.588,17.251,76.457,24.754
					c85.045,7.503,57.498,12.501,122.347,12.013c64.849-0.488,125.176-15.623,162.258-22.021
					c37.082-6.398,28.458-21.671-27.244-25.256C336.444,396.457,168.599,409.299,118.831,402.878z"/>
				<g>
					<path style="fill:#FFFFFF;" d="M59.784,294.801c-11.234-1.234-18.499-12.503-14.95-23.233
						c4.136-12.503,14.124-27.428,37.593-35.743c30.217-10.707,64.206-0.53,74.27,27.873c6.995,19.742-3.429,37.039-19.841,52.15
						c-4.177,2.536-4.121,8.667-2.793,14.65c1.92,8.649-3.051,17.35-11.402,20.309l0,0c-9.208,3.262-19.317-1.557-22.579-10.765
						l-1.873-5.285c-3.141-8.864-5.308-16.258,1.687-25.312c9.505-12.211,20.773-16.884,15.706-31.187
						c-3.426-9.669-13.105-13.948-22.17-10.736c-8.266,2.929-12.72,8.926-14.865,15.291
						C75.901,290.727,68.084,295.713,59.784,294.801L59.784,294.801z M157.879,377.101c4.496,12.69-2.137,26.603-15.03,31.172
						c-12.691,4.497-26.605-2.137-31.101-14.827c-4.568-12.892,2.065-26.806,14.757-31.303
						C139.397,357.575,153.311,364.209,157.879,377.101z"/>
				</g>
				<g>
					<path style="fill:#FFFFFF;" d="M345.451,272.378c-7.91-7.011-7.37-19.538,1.136-25.813c9.911-7.311,25.599-13.311,48.008-6.982
						c28.853,8.149,49.305,34.278,41.645,61.399c-5.324,18.851-22.625,26.426-43.318,29.097c-4.559-0.32-7.828,4.391-10.046,9.676
						c-3.206,7.64-11.702,11.598-19.675,9.346l0,0c-8.792-2.483-13.906-11.623-11.423-20.415l1.425-5.047
						c2.39-8.463,4.73-15.279,14.961-18.413c13.853-4.188,24.98-1.669,28.837-15.326c2.608-9.233-2.471-17.728-11.127-20.172
						c-7.893-2.229-14.533-0.057-19.609,3.645C359.956,277.974,351.295,277.557,345.451,272.378L345.451,272.378z M375.886,388.199
						c-3.422,12.117-16.002,19.156-28.313,15.68c-12.118-3.422-19.158-16.003-15.736-28.12c3.477-12.31,16.057-19.35,28.175-15.927
						C372.323,363.308,379.363,375.888,375.886,388.199z"/>
				</g>
				<path style="fill:#FF988F;" d="M63.389,381.74c0,0-5.016-17.306-15.55-19.563c-10.534-2.257-7.216-5.016-9.251-10.785
					c-2.035-5.769-4.794-7.273-8.556-8.026c-3.762-0.752-3.01-10.534-8.277-11.788c-5.267-1.254,1.505,12.54,0,20.315
					c-1.505,7.775,4.264,6.521,7.273,15.55c3.01,9.029,0,14.798,3.762,21.82c3.762,7.022,8.796,0.342,10.534,10.032
					c1.738,9.69,14.547,15.299,24.579,14.045c10.032-1.254,11.224-2.993,11.224-2.993L63.389,381.74z"/>
				<path style="fill:#B56F68;" d="M65.035,406.32c0,0-18.852-15.302-18.432-27.481c0.42-12.179,1.979-14.576-2.98-21.896
					c-4.959-7.321-0.345-16.77,2.782-24.459c3.127-7.688-7.317-13.702-0.726-21.318s22.118,8.629,23.95,23.638
					c1.832,15.009,5.201,19.335,14.103,25.937c8.902,6.602,10.532,17.727,9.81,24.08c-0.723,6.353,9.904,9.103,7.069,25.545
					C100.611,410.366,90.999,415.674,65.035,406.32z"/>
				<path style="fill:#FF988F;" d="M78.463,407.913c0,0-5.436-13.725,0-22.613c5.436-8.888,4.778-9.029,5.029-16.052
					c0.251-7.023,4.013-10.283,7.524-11.286c3.511-1.003,5.769-3.74,7.524-8.516c1.756-4.776,7.273-5.827,10.534-1.414
					s-1.756,16.953,0,22.722c1.756,5.769,1.003,12.29-1.254,17.055c-2.257,4.765,2.007,8.527,0,15.55
					c-2.006,7.022-4.89,11.571-25.645,11.303L78.463,407.913z"/>
				<path style="fill:#D6A499;" d="M108.414,426.811c0,0,1.679-4.931,9.944-6.921c8.265-1.99,15.699,5.371,16.437,8.729
					C134.794,428.619,116.033,432.494,108.414,426.811z"/>
				<path style="fill:#B56F68;" d="M397.671,402.572c0,0-0.878-28.948,22.815-52.2c23.693-23.251,49.813-19.37,49.813-19.37
					s1.059,27.496-18.178,48.981c-19.237,21.485-39.721,27.743-39.721,27.743L397.671,402.572z"/>
				<path style="fill:#FF988F;" d="M412.4,407.726c5.667,1.849,12.48,0.895,18.314-0.327c9.583-2.007,20.043-8.773,31.053-18.896
					c17.813-16.377,18.518-34.508,18.518-34.508s-28.729,0.693-47.29,17.419s-27.834,33.779-27.834,33.779L412.4,407.726z"/>
				<path style="fill:#FF988F;" d="M190,404.241c0,0,2.571-11.77,16.571-15.484c14-3.714,16.857,5.714,29.143,1.714
					s11.143-9.53,26-8.337c14.857,1.194,16.857,10.337,26.571,8.337c9.714-2,17.422,4.669,17.711,10.191
					C305.997,400.663,240.571,405.44,190,404.241z"/>
			</g>
			<circle style="fill:#FFE0D4;" cx="364.939" cy="143.947" r="10.551"/>
			<circle style="fill:#FFE0D4;" cx="430.825" cy="197.293" r="5.827"/>
			<circle style="fill:#FFE0D4;" cx="138.51" cy="143.947" r="10.551"/>
			<path style="fill:#FFE0D4;" d="M79.139,195.539c0,3.904-3.165,7.07-7.07,7.07c-3.904,0-7.069-3.165-7.069-7.07
				s3.165-7.07,7.069-7.07C75.974,188.469,79.139,191.634,79.139,195.539z"/>
		</g>
		<g>
			<ellipse style="fill:#C4928A;" cx="250.925" cy="414.932" rx="42.425" ry="7.526"/>
			<g>
				<path style="fill:#FF6A6E;" d="M283.167,306.96c-0.08-2.93-0.46-5.77-1.13-8.5c-3.45-14.21-14.42-25.22-28.43-28.82
					c-3.54-0.92-7.26-1.35-11.11-1.25c-0.64,0.02-1.26,0.05-1.89,0.1c-20.8,1.54-36.9,19.16-36.33,40.57
					c0.58,21.7,18.61,38.8,40.32,38.23c11.01-0.29,20.78-4.94,27.74-12.22C279.317,327.78,283.467,317.83,283.167,306.96z
					 M337.837,132.43c-0.4-14.94-5.12-28.37-12.99-39.75c-6.31-9.16-14.65-16.99-24.41-23.23c-17.53-11.26-39.63-17.37-62.62-16.76
					c-5.44,0.15-10.55,0.6-15.36,1.32c-11.31,1.68-20.97,4.83-29.19,8.87c0,0,0,0-0.01,0c-14.13,6.96-24.03,16.55-30.91,25.91
					c-5.15,7.02-6.58,15.45-4.85,23.16c1.88,8.44,7.53,16,16.21,19.92c12.28,5.53,26.75,1.78,34.78-9.03
					c4.66-6.28,11.08-11.66,19.6-14.31c3.29-1.02,6.88-1.63,10.81-1.74c15.51-0.42,28.22,10.97,28.66,27.51
					c0.62,23.36-17.23,25.83-36.83,38.19c-0.93,0.59-1.86,1.19-2.79,1.82c-15.24,10.4-15.6,22.82-15.19,37.98l0.23,9.04
					c0.41,15.49,13.1,27.77,28.51,27.77c0.25,0,0.51,0,0.77-0.01c11.47-0.31,21.44-7.38,25.62-17.52c1.03-2.48,1.71-5.15,1.98-7.95
					c0.54-5.7,1.77-11.25,4.2-15.27c0,0,0,0,0-0.01c1.75-2.93,4.14-5.04,7.38-5.8c14.93-6.85,28.18-15.02,38.08-25.1
					C331.287,165.46,338.327,150.78,337.837,132.43z"/>
				<path style="fill:#CC5C67;" d="M233.997,231.33c9.669,6.667,24.24,8.25,33.88,0.24c-4.18,10.14-14.15,17.21-25.62,17.52
					c-0.26,0.01-0.52,0.01-0.77,0.01c-15.41,0-28.1-12.28-28.51-27.77l-0.23-9.04c-0.41-15.16-0.05-27.58,15.19-37.98
					c0.93-0.63,1.86-1.23,2.79-1.82c19.6-12.36,37.45-14.83,36.83-38.19c-0.44-16.54-13.15-27.93-28.66-27.51
					c-3.93,0.11-7.52,0.72-10.81,1.74c-8.52,2.65-14.94,8.03-19.6,14.31c-8.03,10.81-22.5,14.56-34.78,9.03
					c-8.68-3.92-14.33-11.48-16.21-19.92c8.81,3.2,22.068,6.791,33.65-2.05c31.068-23.714,66.43-32.784,88.71,0.286
					c22.29,33.07-5.487,61.406-40.714,75.055C221.823,191.951,228.429,227.49,233.997,231.33z"/>
				<path style="fill:none;stroke:#FCAEB6;stroke-width:2;stroke-linecap:round;stroke-linejoin:round;stroke-miterlimit:10;" d="
					M162.779,101.161c0,0-2.689,16.788,14.565,23.317c17.254,6.529,29.146-22.151,55.26-24.949
					c26.115-2.798,38.123,11.658,41.446,24.949"/>
				<path style="fill:none;stroke:#FCAEB6;stroke-width:2;stroke-linecap:round;stroke-linejoin:round;stroke-miterlimit:10;" d="
					M220.946,199.973c0,0-2.798,17.874,3.031,30.996c5.829,13.123,28.446,14.066,35.441-1.095
					c6.995-15.161-2.011-21.544,18.114-32.226c20.125-10.682,26.887-17.094,30.384-21.116"/>
				<path style="fill:none;stroke:#FF8D95;stroke-width:2;stroke-linecap:round;stroke-linejoin:round;stroke-miterlimit:10;" d="
					M221.823,60.59c0,0,52.56-7.742,84.695,22.151c32.135,29.893,17.264,71.757,17.264,71.757"/>
				<path style="fill:none;stroke:#FF8D95;stroke-width:2;stroke-linecap:round;stroke-linejoin:round;stroke-miterlimit:10;" d="
					M253.181,168.112c0,0,23.258-9.942,22.384-34.6"/>
				<path style="fill:#CC5C67;" d="M272.337,335.07c-6.96,7.28-16.73,11.93-27.74,12.22c-21.71,0.57-39.74-16.53-40.32-38.23
					c-0.57-21.41,15.53-39.03,36.33-40.57c0.63-0.05,1.25-0.08,1.89-0.1c3.85-0.1,7.57,0.33,11.11,1.25
					c-13.11,2.03-35.28,9.08-34.36,33.48c1.32,34.56,40.86,32.84,51,8.5c3.82-9.15,8.03-12.87,11.79-13.16
					c0.67,2.73,1.05,5.57,1.13,8.5C283.467,317.83,279.317,327.78,272.337,335.07z"/>
				<path style="fill:none;stroke:#FCAEB6;stroke-width:2;stroke-linecap:round;stroke-linejoin:round;stroke-miterlimit:10;" d="
					M274.704,308.325c0,17.313-14.035,31.349-31.349,31.349c-17.313,0-31.349-14.035-31.349-31.349
					c0-17.313,11.445-32.202,28.758-32.202"/>
			</g>
		</g>
		<g>
			<g>
				<path style="fill:#C4928A;" d="M195.793,420.51c0,3.081-12.938,5.578-28.898,5.578s-28.898-2.498-28.898-5.578
					s12.938-5.578,28.898-5.578S195.793,417.429,195.793,420.51z"/>
				<g>
					<path style="fill:#FFA08B;" d="M178.104,289.066c-0.463-0.116-1.331,1.042-1.331,1.042l-1.736-1.852
						c0,0,0.347-1.042,0.579-2.72c0.142-1.033,0.322-3.16,0.439-4.644c2.777-3.163,10.959-13.211,9.514-20.295
						c-1.736-8.506-8.101-24.882-8.101-24.882c-1.525,0.024-10.852,5.266-10.852,5.266l8.537,21.005l-4.589,13.771l-0.072-0.045
						l-3.581,8.565c-0.719,1.719-0.396,3.698,0.831,5.101c0.76,0.869,1.559,1.699,2.029,1.947c1.099,0.579,6.307,2.257,7.204,1.736
						c0.897-0.521,1.938-2.951,1.938-2.951S178.567,289.182,178.104,289.066z"/>
					<polygon style="fill:#FFA08B;" points="144.741,400.999 146.85,414.932 155.388,411.704 154.765,400.999 					"/>
					<polygon style="fill:#FFA08B;" points="172.053,399.379 173.618,409.811 184.655,413.167 182.932,399.379 					"/>
					<path style="fill:#006A66;" d="M185.655,404.51c-7.125,4.16-15.619,1.387-15.619,1.387l-12.137-98.647l-1.377,0.679
						l0.622,37.875l0.182,10.712l0.813,49.754c-7.431,3.128-14.318,0-14.318,0l-8.761-96.37
						c-3.692-19.444-0.306-35.445-0.306-35.445c5.92,0.316,35.818,0.277,35.818,0.277s5.815,39.625,7.594,51.715
						c0.459,3.137,1.004,7.766,1.588,13.228c0.555,5.251,1.157,11.286,1.741,17.512C183.618,379.614,185.655,404.51,185.655,404.51z
						"/>
					<path style="fill:#FF6A6E;" d="M166.616,215.679c0,0,9.578,7.884,12.703,21.309l-8.911,2.315L166.616,215.679z"/>
					<path style="fill:#FFD179;" d="M154.872,211.958c0.289,0.25,7.507,1.79,10.876,3.138c3.369,1.347,6.834,13.571,7.123,20.887
						c0.289,7.315-2.197,39.445-2.197,39.445c-3.243,4.396-35.751-0.977-35.751-0.977s-8.734-31.967-8.156-49.056
						c0.182-5.391,1.925-8.855,1.925-8.855l14.883-4.941L154.872,211.958z"/>
					<path style="fill:#FFA08B;" d="M142.167,214.648c0,0,4.236,3.463,8.983,3.463c4.748,0,5.516-3.593,5.516-3.593
						c-0.57-0.975-0.984-2.075-1.285-3.167c-0.835-3.068-0.768-6.073-0.768-6.073l-10.394-5.004
						c0.615,2.619,0.629,5.031,0.359,7.102C144.014,211.792,142.167,214.648,142.167,214.648z"/>
					<path style="fill:#B56F68;" d="M144.58,207.376c1.99,1.801,5.561,4.078,10.803,3.975c-0.835-3.068-0.768-6.073-0.768-6.073
						l-10.394-5.004C144.836,202.893,144.849,205.305,144.58,207.376z"/>
					<path style="fill:#FFA08B;" d="M136.873,190.456c1.529-0.632,2.825,0.178,3.686,1.041c-0.393-2.433-0.571-5.066-0.446-7.907
						c0.385-8.727,16.684-8.983,20.534-7.187c3.85,1.797,3.828,12.252,3.786,13.924c0,0,0.577,9.689-3.786,14.823
						c-4.363,5.133-12.577,3.722-15.529-1.155c-0.68-1.123-1.33-2.354-1.927-3.681c-0.71,0.1-3.015,0.231-5.26-1.773
						C135.237,196.135,134.082,191.611,136.873,190.456z"/>
					<path style="fill:#00445B;" d="M138.612,176.491c0,0,0.255-3.646,3.556-4.861c3.301-1.215,4.777,0.174,6.165-0.694
						c1.389-0.868,3.472-3.732,7.551-3.038c4.079,0.694,5.121,3.993,6.77,3.038c1.649-0.955,4.774-0.347,6.336,2.951
						c1.562,3.298-1.649,4.6-0.868,5.989c0.781,1.389,1.91,2.257,0.868,4.687c-1.042,2.43-2.517,1.042-2.517,2.691
						c0,1.649-2.041,3.074-2.041,3.074s-0.303-6.72-0.997-8.108c0,0-2.286,2.575-6.336,1.91c-2.582-0.424-3.009,1.389-4.398,2.691
						c-1.389,1.302-6.481,1.1-6.481,1.1s0.049,6.105-2.001,7.667c-2.05,1.562-1.182-2.827-3.661-4.089
						c-2.479-1.261-4.118-0.338-4.378,2.613c-0.26,2.951,3.517,6.505,7.01,6.203c0,0,1.145,1.63,1.494,2.943
						c0.349,1.313-0.106,4.12-0.106,4.12s-12-7.798-13.693-13.96c-1.693-6.163,0.738-9.461,0.738-9.461s-0.26-2.3,1.215-4.73
						C134.315,176.794,138.612,176.491,138.612,176.491z"/>
					<path style="fill:#FFA08B;" d="M162.871,210.732c0,0,0.304-0.998,0.347-1.539c0.043-0.541-0.825-2.02-0.825-2.02
						s0.217-0.564,0.26-1.359c0.044-0.794,0.564-3.372-0.434-3.632c-0.998-0.26-1.953,4.73-3.255,5.685
						c-1.302,0.955-3.081,2.083-2.951,1.823c0.13-0.26,0.087-2.04,0-2.56c-0.087-0.521-0.868-2.083-1.397-1.315
						c-0.529,0.768-1.641,5.178-1.293,6.393c0.347,1.215,1.128,4.332,1.128,4.332l-0.738,2.828l-7.378,31.247l-6.423-11.023
						l-14.756,5.04c0,0,11.284,19.958,17.707,22.388c2.16,0.817,3.938,1.078,5.358,1.074c0.008,0.001,0.015,0.006,0.023,0.007
						c2.532,0.254,7.291-0.733,10.242-7.156c2.951-6.423,1.822-41.068,1.822-41.068l0,0l0.304-1.115c0,0,1.693-2.951,1.954-3.295
						c0.262-0.344,0.086-1.826,0.086-1.826s0.477-0.521,0.566-1.172C163.309,211.817,162.871,210.732,162.871,210.732z"/>
					<path style="fill:#724F2B;" d="M146.246,411.704c0,0-0.058,6.944,0,8.101c0.058,1.157,1.099,3.414,3.993,4.976
						c2.893,1.562,6.654,1.389,8.68,1.157c2.025-0.231,3.588-0.868,4.166-1.852c0.579-0.984-0.023-2.546-1.082-4.398
						c-1.059-1.852-3.489-2.43-4.589-4.514c-1.099-2.083-1.562-3.874-2.141-4.34c-0.579-0.466-3.305-0.328-4.343,0.212
						c-1.038,0.54-2.195,2.161-2.716,2.161C147.692,413.208,147.403,411.762,146.246,411.704z"/>
					<path style="fill:#724F2B;" d="M173.034,409.214c0.11,2.275,0.404,6.847,1.044,8.682c0,0,0.026,1.178,3.44,1.352
						c3.414,0.174,7.15,0.037,9.348,0.442c2.199,0.405,8.043,0.174,8.969-0.463c0.926-0.636,1.505-2.719,0.058-3.761
						c-1.447-1.042-10.126-5.381-11.805-6.828c0,0-2.025,0.058-3.587,1.505c-1.185,1.097-4.267-0.834-6.166-1.781
						C173.718,408.053,173.001,408.525,173.034,409.214z"/>
					<path style="fill:none;stroke:#004740;stroke-linecap:round;stroke-linejoin:round;stroke-miterlimit:10;" d="M134.227,277.647
						c0,0,10.226,3.202,21.499,3.305c11.272,0.103,15.448-2.118,15.448-2.118"/>
					<path style="fill:none;stroke:#004740;stroke-linecap:round;stroke-linejoin:round;stroke-miterlimit:10;" d="M156.521,307.93
						c0,0,1.562-8.293,7.164-10.48"/>
					<path style="fill:none;stroke:#004740;stroke-linecap:round;stroke-linejoin:round;stroke-miterlimit:10;" d="M162.448,280.705
						c0,0,1.237,8.57-0.54,12.453c-1.776,3.883-3.001,3.063-3.001,3.063v-11.786"/>
					<path style="fill:none;stroke:#004740;stroke-linecap:round;stroke-linejoin:round;stroke-miterlimit:10;" d="M133.493,285.419
						c0,0,6.825-0.39,8.056-5.998"/>
					<path style="fill:none;stroke:#004740;stroke-linecap:round;stroke-linejoin:round;stroke-miterlimit:10;" d="M143.436,402.052
						c0,0,6.415,2.792,14.442,0.162"/>
					<path style="fill:none;stroke:#004740;stroke-linecap:round;stroke-linejoin:round;stroke-miterlimit:10;" d="M169.639,402.697
						c0,0,8.953,1.732,16.017-1.698"/>
					<path style="fill:#025650;" d="M157.326,356.516c-1.291,1.884-3.281,3.089-5.499,3.089c-3.912,0-7.087-3.73-7.087-8.331
						c0-4.6,3.175-8.321,7.087-8.321c2.133,0,4.036,1.1,5.318,2.85L157.326,356.516z"/>
					<path style="fill:#025650;" d="M181.495,357.185c-0.545,0.172-1.109,0.258-1.702,0.258c-3.902,0-7.068-3.979-7.068-8.885
						c0-4.887,3.147-8.857,7.03-8.885C180.309,344.924,180.911,350.959,181.495,357.185z"/>
					<path style="fill:none;stroke:#004740;stroke-linecap:round;stroke-linejoin:round;stroke-miterlimit:10;" d="M135.756,284.988
						c0,0,0.059,10.208,1.765,24.554l3.961,47.903l3.26,45.054"/>
					<path style="fill:none;stroke:#004740;stroke-linecap:round;stroke-linejoin:round;stroke-miterlimit:10;" d="M158.409,302.69
						c0,0,8.077,47.228,8.282,51.327c0.205,4.099,5.363,49.326,5.363,49.326"/>
					<path style="fill:none;stroke:#B56F68;stroke-linecap:round;stroke-linejoin:round;stroke-miterlimit:10;" d="M146.337,250.615
						c0,0-1.086,3.932-2.116,8.851"/>
					<path style="fill:none;stroke:#B56F68;stroke-linecap:round;stroke-linejoin:round;stroke-miterlimit:10;" d="M175.153,261.986
						c0,0,4.085-2.01,7.25-1.699"/>
					<path style="fill:#FF6A6E;" d="M128.692,216.54c0,0-7.352,2.568-7.873,12.636s2.604,18.227,2.604,18.227l18.745-6.944
						C142.167,240.46,135.523,219.701,128.692,216.54z"/>
					<path style="fill:none;stroke:#B56F68;stroke-linecap:round;stroke-linejoin:round;stroke-miterlimit:10;" d="M162.394,207.173
						c0,0-0.827,1.533-1.442,2.02"/>
					<path style="fill:none;stroke:#B56F68;stroke-linecap:round;stroke-linejoin:round;stroke-miterlimit:10;" d="M162.871,210.732
						c0,0-0.682,1.305-1.198,1.562"/>
					
						<line style="fill:none;stroke:#B56F68;stroke-linecap:round;stroke-linejoin:round;stroke-miterlimit:10;" x1="162.654" y1="213.64" x2="161.673" y2="214.65"/>
					<path style="fill:none;stroke:#B56F68;stroke-linecap:round;stroke-linejoin:round;stroke-miterlimit:10;" d="M174.222,416.629
						c0,0,2.664,0.256,7.481,0.564c4.816,0.307,11.272,0.871,14.09,0"/>
					<path style="fill:none;stroke:#B56F68;stroke-linecap:round;stroke-linejoin:round;stroke-miterlimit:10;" d="M146.742,418.731
						c0,0,1.845,3.056,6.354,3.739c4.509,0.683,9.018-0.341,9.018-0.341"/>
					<path style="fill:none;stroke:#B56F68;stroke-linecap:round;stroke-linejoin:round;stroke-miterlimit:10;" d="M162.407,202.345
						c0,0-0.021-0.325-0.591,0c-0.57,0.325-1.787,4.363-2.453,5.101c-0.666,0.737-3.407,2.516-3.407,2.516s0.615-1.614,0-3.055
						c-0.615-1.441-1.339-1.092-1.339-1.092s-1.354,2.906-1.327,5.153s1.103,5.797,1.103,5.797"/>
					<path style="fill:none;stroke:#B56F68;stroke-linecap:round;stroke-linejoin:round;stroke-miterlimit:10;" d="M138.51,193.079
						c0,0,2.869,2.562,3.228,4.919"/>
					<path style="fill:none;stroke:#B56F68;stroke-linecap:round;stroke-linejoin:round;stroke-miterlimit:10;" d="M139.33,197.486
						c0,0,0.435-1.588,1.319-1.947"/>
					<line style="fill:none;stroke:#FF8D95;stroke-miterlimit:10;" x1="124.163" y1="244.378" x2="139.944" y2="238.732"/>
					
						<line style="fill:none;stroke:#005C75;stroke-linecap:round;stroke-linejoin:round;stroke-miterlimit:10;" x1="139.33" y1="176.803" x2="142.167" y2="176.803"/>
					
						<line style="fill:none;stroke:#005C75;stroke-linecap:round;stroke-linejoin:round;stroke-miterlimit:10;" x1="132.874" y1="184.249" x2="134.24" y2="184.591"/>
					<path style="fill:none;stroke:#005C75;stroke-linecap:round;stroke-linejoin:round;stroke-miterlimit:10;" d="M164.458,180.629
						c0,0-0.466,2.493-3.472,3.348c-3.006,0.854-4.419-0.488-5.526,0.231c-1.107,0.719-3.338,5.092-9.239,3.712
						c0,0-0.272,7.688-2.455,7.936c-2.182,0.248-1.072-3.629-3.643-4.56"/>
					<path style="fill:none;stroke:#005C75;stroke-linecap:round;stroke-linejoin:round;stroke-miterlimit:10;" d="M159.825,172.584
						c0,0,1.398,0.263,1.757-0.615"/>
					<path style="fill:none;stroke:#005C75;stroke-linecap:round;stroke-linejoin:round;stroke-miterlimit:10;" d="M149.27,171.969
						c0,0,0.512,0.396,1.691,0.326"/>
					
						<line style="fill:none;stroke:#005C75;stroke-linecap:round;stroke-linejoin:round;stroke-miterlimit:10;" x1="144.761" y1="184.984" x2="145.58" y2="185.496"/>
					<path style="fill:none;stroke:#005C75;stroke-linecap:round;stroke-linejoin:round;stroke-miterlimit:10;" d="M151.729,179.809
						c0,0,1.093-0.956,3.211-0.547"/>
				</g>
			</g>
			<g>
				<path style="fill:#FFE0D4;" d="M124.525,178.842c-7.243-1.768-12.265-5.058-15.67-8.313
					c8.864-6.764,14.587-17.434,14.587-29.444c0-20.447-16.576-37.023-37.023-37.023c-20.447,0-37.023,16.576-37.023,37.023
					c0,20.447,16.576,37.023,37.023,37.023c2.86,0,5.64-0.335,8.313-0.949C110.862,183.82,124.525,178.842,124.525,178.842z"/>
				<g>
					<path style="fill:#FF988F;" d="M75.312,130.708c-3.032-1.203-4.191-4.895-2.382-7.609c2.108-3.163,6.029-6.551,13.197-7.069
						c9.228-0.667,17.907,4.766,18.534,13.441c0.436,6.029-3.789,10.045-9.512,12.993c-1.356,0.386-1.81,2.096-1.898,3.863
						c-0.128,2.554-2.177,4.595-4.727,4.779l0,0c-2.812,0.203-5.256-1.912-5.459-4.723l-0.117-1.614
						c-0.196-2.707-0.233-4.93,2.407-6.914c3.579-2.671,7.073-3.108,6.757-7.476c-0.213-2.953-2.579-4.884-5.348-4.684
						c-2.524,0.182-4.223,1.51-5.307,3.117C80.109,130.807,77.552,131.596,75.312,130.708L75.312,130.708z M96.311,161.117
						c0.28,3.875-2.631,7.239-6.568,7.524c-3.876,0.28-7.24-2.631-7.52-6.506c-0.284-3.937,2.626-7.301,6.502-7.581
						C92.662,154.269,96.026,157.18,96.311,161.117z"/>
				</g>
			</g>
		</g>
		<g>
			<g>
				<path style="fill:#C4928A;" d="M407.626,413.845c0.106,4.155-18.795,8.01-42.218,8.61c-23.423,0.6-42.497-2.282-42.604-6.437
					c-0.107-4.155,18.795-8.01,42.218-8.61C388.446,406.808,407.52,409.69,407.626,413.845z"/>
				<g>
					<path style="fill:#FFA08B;" d="M358.914,360.606c0,0,1.129,3.009,0.131,15.664c-0.998,12.655-1.896,26.784-1.896,26.784
						l-8.052,1.188l-4.556-42.666L358.914,360.606z"/>
					<path style="fill:#FFA08B;" d="M387.039,360.952c0,0,1.47,2.858,1.945,15.543c0.476,12.685,1.221,26.823,1.221,26.823
						l-8.191-0.321l-9.14-39.417L387.039,360.952z"/>
					<path style="fill:#B7515D;" d="M341.285,291.215l1.875,76.602c3.733,3.783,17.987-0.119,17.987-0.119
						s1.899-68.475,2.077-74.752C363.223,292.945,360.183,282.882,341.285,291.215z"/>
					
						<line style="fill:none;stroke:#A53F4E;stroke-linecap:round;stroke-linejoin:round;stroke-miterlimit:10;" x1="359.217" y1="304.126" x2="357.506" y2="364.513"/>
					<path style="fill:#FF6A6E;" d="M389.099,366.478l-7.429-71.375c0,0,0.635-15.289-5.608-27.291l-34.13,0.573l-0.647,22.831
						l15.525,6.352c3.419,15.324,15.664,69.78,15.664,69.78C379.383,372.071,389.099,366.478,389.099,366.478z"/>
					<path style="fill:#FFD179;" d="M347.169,210.666l-25.981,26.891l6.195,9.599c0,0,14.786-6.695,18.291-13.016
						C349.179,227.818,347.169,210.666,347.169,210.666z"/>
					<path style="fill:#006A66;" d="M358.628,207.336c-0.284,0.232-7.249,1.513-10.516,2.714c-3.268,1.201-6.923,12.83-7.399,19.837
						c-0.476,7.008,1.219,38.497,1.219,38.497c2.991,4.304,34.13-0.573,34.13-0.573s9.245-30.42,9.155-46.825
						c-0.028-5.175-1.605-8.545-1.605-8.545l-14.139-5.144L358.628,207.336z"/>
					<path style="fill:#00445B;" d="M348.648,183.521c0,0,0.385,5.985-1.573,12.027c-1.957,6.042-3.033,7.058-2.978,7.306
						c0.055,0.248,1.142,1.012,2.874,0.725c1.733-0.286,1.896,0.457,3.771,1.68c1.875,1.223,2.783-0.414,4.169,0.673
						c1.386,1.086,4.451,1.604,5.134,1.377s-1.265-9.705-1.265-9.705l-4.737-15.408L348.648,183.521z"/>
					<path style="fill:#FFA08B;" d="M369.418,207.126c0.677,2.172-0.514,4.47-2.634,5.296c-1.397,0.544-3.048,0.964-4.755,0.916
						c-0.072-0.002-0.143-0.005-0.213-0.009c-2.901-0.152-4.911-3.081-3.92-5.812c0.094-0.258,0.18-0.518,0.259-0.778
						c0.885-2.92,0.902-5.803,0.902-5.803l10.104-4.516c-0.661,2.495-0.74,4.808-0.538,6.801
						C368.773,204.726,369.082,206.047,369.418,207.126z"/>
					<path style="fill:#B56F68;" d="M368.623,203.221c-1.957,1.673-5.444,3.76-10.468,3.519c0.885-2.92,0.902-5.803,0.902-5.803
						l10.104-4.516C368.5,198.915,368.421,201.228,368.623,203.221z"/>
					<path style="fill:#FFA08B;" d="M376.474,187.204c-1.449-0.648-2.714,0.094-3.564,0.898c0.444-2.323,0.686-4.843,0.643-7.571
						c-0.132-8.38-15.756-9.069-19.497-7.45c-3.741,1.618-4.004,11.646-4.009,13.251c0,0-0.817,9.277,3.228,14.318
						c4.045,5.042,11.96,3.911,14.924-0.686c0.682-1.059,1.339-2.221,1.948-3.478c0.679,0.115,2.886,0.303,5.092-1.557
						C377.889,192.694,379.12,188.387,376.474,187.204z"/>
					<path style="fill:#00445B;" d="M354.388,171.863c0,0-2.195-0.436-4.14,3.019c-1.945,3.455-2.739,7.559-4.425,8.374
						c0,0,3.039,1.441,5.01,1.435c0,0,1.221-3.969,2.675-5.282c0,0-0.996,4.714-0.973,6.07c0,0,5.015,1.249,7.238,1.036l1.285-4.058
						l0.455,4.152c0,0,2.247,0.495,4.712,0.429l1.277-3.782c0,0-0.772,5.521,1.227,6.686c0,0-0.331,2.727,0.868,4.151
						c0,0,2.049-6.021,5.206-5.501c3.157,0.521,1.189,5.524-0.743,6.677s-3.944,1.18-3.944,1.18s-1.222,2.377-1.489,2.82
						c0,0-0.558,4.534,0.266,6.636c0.824,2.103,3.501,1.416,4.161,0.949c0.66-0.466,1.816,0.282,3.231,0.068
						c1.415-0.214,1.466-1.205,2.275-1.206c0.808,0,1.867,0.145,2.379-0.81c0,0,0.258-0.693,1.795-0.588
						c1.537,0.105,3.037-0.671,3.57-2.094c0,0-4.573-3.27-3.861-11.028c0.713-7.758-0.504-11.171-2.566-12.563
						c0,0-0.61-5.334-8.621-8.702C363.244,166.564,357.053,169.105,354.388,171.863z"/>
					<path style="fill:#FFD179;" d="M383.611,212.442c0,0-3.457,4.614-4.609,10.493c-1.152,5.88,1.875,9.907,1.875,9.907
						l18.253,18.747l6.623-7.696c0,0-6.404-11.144-13.168-21.19C385.822,212.658,383.611,212.442,383.611,212.442z"/>
					<path style="fill:#FFA08B;" d="M327.237,241.423c-1.125-5.716-11.713-21.685-14.434-25.722l0,0
						c-0.062-1.371-1.135-3.24-1.688-4.118c-0.547-2.498-1.264-7.062-1.878-5.452c-0.528,1.387-0.385,3.41-0.254,4.482l-5.314-1.391
						c-0.865-0.327-3.365-1.193-4.476-0.743c-0.913,0.37,1.707,1.387,3.514,2.012l-0.133,0.331c-1.068-0.404-3.86-1.376-4.946-0.936
						c-1.079,0.437,2.778,1.78,4.394,2.308l-0.244,0.607c-0.178-0.073-3.444-1.388-4.763-0.854c-1.039,0.421,2.496,1.68,4.203,2.245
						l-0.155,0.387c-1.066-0.378-3.125-1.005-4.105-0.608c-1.355,0.549,5.076,2.526,5.076,2.526l5.255,2.313
						c1.104,3.942,6.426,22.54,9.62,26.261c3.577,4.166,7.023,4.264,8.138,4.049C326.163,248.906,328.529,247.988,327.237,241.423z"
						/>
					<path style="fill:#FFA08B;" d="M427.699,218.314c-0.956-0.452-3.047,0.058-4.133,0.374l-0.133-0.395
						c1.737-0.468,5.337-1.525,4.324-2.004c-1.286-0.608-4.621,0.521-4.803,0.583l-0.209-0.62c1.643-0.436,5.57-1.558,4.518-2.056
						c-1.059-0.501-3.902,0.312-4.991,0.654l-0.114-0.338c1.84-0.522,4.513-1.389,3.623-1.81c-1.084-0.512-3.628,0.211-4.51,0.488
						l-5.385,1.088c0.191-1.064,0.449-3.075,0-4.49c-0.521-1.643-1.496,2.874-2.184,5.337c-0.602,0.846-1.78,2.651-1.919,4.016
						l0.051,0.038l-12.703,32.409c3.823,3.927,8.996,4.197,11.077,0.314c1.804-3.366,6.882-24.313,8.201-29.828l4.079-1.526
						C422.489,220.549,429.021,218.939,427.699,218.314z"/>
					<path style="fill:#724F2B;" d="M341.163,407.206c-3.92,2.236-7.14,1.885-7.77,4.533c-0.363,1.523,5.065,2.182,8.499,2.279
						c3.435,0.097,7.698-0.956,10.728-1.373s5.226-0.69,5.613-1.182c0.387-0.492-0.025-6.666-0.248-7.678
						c-0.223-1.012-0.788-1.491-0.788-1.491s-1.452,0.673-4.23,1.055c-2.777,0.382-2.399-1.329-4.063-0.901
						C347.75,402.745,345.083,404.97,341.163,407.206z"/>
					<path style="fill:#724F2B;" d="M381.02,401.814c0,0-1.167,3.974-2.117,7.887c-0.949,3.913-3.031,6.37-2.827,8.052
						c0.204,1.683,1.348,2.721,3.359,2.778c2.01,0.057,5.119-0.19,7.362-2.39c2.242-2.2,3.366-6.36,3.818-7.521
						c0.452-1.161,1.738-5.111,1.753-5.633c0.015-0.521-2.421-6.787-2.421-6.787s-0.913,3.152-2.028,4.043
						C386.803,403.134,384.369,399.725,381.02,401.814z"/>
					<path style="fill:none;stroke:#004740;stroke-linecap:round;stroke-linejoin:round;stroke-miterlimit:10;" d="M356.475,207.882
						c0,0-1.575,1.397-0.32,4.098c1.256,2.701,7.732,4.487,12.039,2.05c4.306-2.437,4.979-5.385,4.979-5.385"/>
					<path style="fill:none;stroke:#004740;stroke-linecap:round;stroke-linejoin:round;stroke-miterlimit:10;" d="M343.724,238.274
						c0,0,7.857-0.195,13.073,0.37c5.216,0.565,12.072,2.81,15.444,2.905"/>
					<path style="fill:none;stroke:#FF8D95;stroke-linecap:round;stroke-linejoin:round;stroke-miterlimit:10;" d="M341.84,271.648
						c0,0,1.986,1.628,11.271,1.96c9.285,0.332,24.399-2.671,24.399-2.671"/>
					<path style="fill:none;stroke:#FF8D95;stroke-linecap:round;stroke-linejoin:round;stroke-miterlimit:10;" d="M347.069,274.599
						c0,0,0.176,8.244,1.951,13.162c1.774,4.918,4.539,6.227,4.539,6.227l-2.38-17.29"/>
					<path style="fill:none;stroke:#FF8D95;stroke-linecap:round;stroke-linejoin:round;stroke-miterlimit:10;" d="M368.938,272.376
						c0,0,2.84,4.49,6.887,5.225"/>
					<path style="fill:none;stroke:#FF8D95;stroke-linecap:round;stroke-linejoin:round;stroke-miterlimit:10;" d="M375.49,271.314
						c0,0,1.169,0.979,2.525,18.24c1.356,17.261,8.54,74.874,8.54,74.874"/>
					<path style="fill:none;stroke:#FF8D95;stroke-linecap:round;stroke-linejoin:round;stroke-miterlimit:10;" d="M371.997,365.224
						c0,0,10.409,1.535,16.809-1.558"/>
					<path style="fill:none;stroke:#A53F4E;stroke-linecap:round;stroke-linejoin:round;stroke-miterlimit:10;" d="M343.091,364.987
						c0,0,2.714,1.259,8.16,0.799c5.447-0.461,9.992-1.562,9.992-1.562"/>
					<path style="fill:none;stroke:#EAB35C;stroke-linecap:round;stroke-linejoin:round;stroke-miterlimit:10;" d="M383.154,216.708
						c0,0-3.213,8.768-1.439,14.619"/>
					<path style="fill:none;stroke:#EAB35C;stroke-linecap:round;stroke-linejoin:round;stroke-miterlimit:10;" d="M400.893,241.918
						c0,0-1.784,4.973-1.725,8.357"/>
					<path style="fill:none;stroke:#EAB35C;stroke-linecap:round;stroke-linejoin:round;stroke-miterlimit:10;" d="M327.321,237.065
						c0,0,2.494,2.428,2.366,6.936"/>
					<path style="fill:none;stroke:#EAB35C;stroke-linecap:round;stroke-linejoin:round;stroke-miterlimit:10;" d="M338.873,223.758
						c0,0-0.938,7.765-0.331,11.678"/>
					
						<line style="fill:none;stroke:#B56F68;stroke-linecap:round;stroke-linejoin:round;stroke-miterlimit:10;" x1="418.409" y1="222.075" x2="415.995" y2="222.712"/>
					
						<line style="fill:none;stroke:#B56F68;stroke-linecap:round;stroke-linejoin:round;stroke-miterlimit:10;" x1="307.29" y1="218.811" x2="309.26" y2="219.638"/>
					<path style="fill:none;stroke:#B56F68;stroke-linecap:round;stroke-linejoin:round;stroke-miterlimit:10;" d="M308.983,210.613
						c0,0-0.265,2.807,0.416,4.108"/>
					
						<line style="fill:none;stroke:#B56F68;stroke-linecap:round;stroke-linejoin:round;stroke-miterlimit:10;" x1="303.07" y1="210.134" x2="300.831" y2="214.991"/>
					<path style="fill:none;stroke:#B56F68;stroke-linecap:round;stroke-linejoin:round;stroke-miterlimit:10;" d="M415.766,214.506
						c0,0,0.316,1.495-0.391,2.962"/>
					
						<line style="fill:none;stroke:#B56F68;stroke-linecap:round;stroke-linejoin:round;stroke-miterlimit:10;" x1="421.679" y1="213.853" x2="423.637" y2="218.932"/>
					<path style="fill:none;stroke:#B56F68;stroke-linecap:round;stroke-linejoin:round;stroke-miterlimit:10;" d="M334.514,411.342
						c0,0,1.466,1.34,9.754,0.686c8.288-0.654,13.107-1.884,13.107-1.884"/>
					<path style="fill:none;stroke:#B56F68;stroke-linecap:round;stroke-linejoin:round;stroke-miterlimit:10;" d="M377.035,418.219
						c0,0,5.311,0.697,8.67-2.078c3.359-2.775,5.661-11.663,5.661-11.663"/>
					
						<line style="fill:none;stroke:#005C75;stroke-linecap:round;stroke-linejoin:round;stroke-miterlimit:10;" x1="379.876" y1="178.633" x2="377.048" y2="178.946"/>
					<path style="fill:none;stroke:#005C75;stroke-linecap:round;stroke-linejoin:round;stroke-miterlimit:10;" d="M350.994,175.867
						c0,0-1.181,1.863-1.578,3.236"/>
					
						<line style="fill:none;stroke:#005C75;stroke-linecap:round;stroke-linejoin:round;stroke-miterlimit:10;" x1="354.388" y1="171.863" x2="356.078" y2="171.911"/>
					
						<line style="fill:none;stroke:#005C75;stroke-linecap:round;stroke-linejoin:round;stroke-miterlimit:10;" x1="357.751" y1="178.007" x2="357.185" y2="180.041"/>
					
						<line style="fill:none;stroke:#005C75;stroke-linecap:round;stroke-linejoin:round;stroke-miterlimit:10;" x1="364.234" y1="179.215" x2="364.771" y2="180.717"/>
					<path style="fill:none;stroke:#005C75;stroke-linecap:round;stroke-linejoin:round;stroke-miterlimit:10;" d="M379.396,181.131
						c0,0,2.475,3.094,1.967,8.36"/>
					<path style="fill:none;stroke:#005C75;stroke-linecap:round;stroke-linejoin:round;stroke-miterlimit:10;" d="M367.284,170.793
						c0,0,7.254,0.872,10.087,5.822"/>
					<path style="fill:none;stroke:#005C75;stroke-linecap:round;stroke-linejoin:round;stroke-miterlimit:10;" d="M370.505,198.205
						c0,0,0.726,5.146,1.847,7.177"/>
					
						<line style="fill:none;stroke:#005C75;stroke-linecap:round;stroke-linejoin:round;stroke-miterlimit:10;" x1="373.823" y1="198.709" x2="374.622" y2="201.243"/>
					<path style="fill:none;stroke:#005C75;stroke-linecap:round;stroke-linejoin:round;stroke-miterlimit:10;" d="M378.117,197.293
						c0,0,1.196,3.025,2.223,4.762"/>
					<path style="fill:none;stroke:#005C75;stroke-linecap:round;stroke-linejoin:round;stroke-miterlimit:10;" d="M348.81,202.306
						c0,0,0.947-2.69,1.107-4.684"/>
				</g>
			</g>
			<g>
				<path style="fill:#FFE0D4;" d="M421.679,125.441c-16.243,0-29.411,13.168-29.411,29.41c0,10.603,5.612,19.892,14.026,25.067
					c-2.674,2.949-7.096,7.117-14.026,11.818c0,0,18.153-0.397,28.966-7.486c0.149,0.002,0.296,0.011,0.445,0.011
					c16.243,0,29.411-13.168,29.411-29.411S437.922,125.441,421.679,125.441z"/>
				<g>
					<path style="fill:#FF988F;" d="M412.628,142.354c-2.346-1.881-2.369-5.448-0.041-7.351c2.714-2.217,7.087-4.143,13.544-2.66
						c8.314,1.909,14.493,9.046,12.698,16.86c-1.247,5.432-6.057,7.828-11.899,8.878c-1.3-0.027-2.163,1.358-2.718,2.891
						c-0.803,2.216-3.162,3.46-5.459,2.933h0c-2.533-0.582-4.115-3.107-3.533-5.64l0.334-1.454c0.56-2.439,1.129-4.408,3.992-5.443
						c3.877-1.385,7.075-0.826,7.978-4.761c0.611-2.66-0.952-5.003-3.446-5.575c-2.274-0.522-4.13,0.189-5.521,1.312
						C416.829,143.74,414.362,143.743,412.628,142.354L412.628,142.354z M422.908,174.837c-0.802,3.491-4.277,5.669-7.824,4.854
						c-3.492-0.802-5.669-4.277-4.867-7.769c0.814-3.547,4.29-5.725,7.782-4.923C421.545,167.814,423.722,171.29,422.908,174.837z"
						/>
				</g>
			</g>
		</g>
	</g>
</g>
</svg>
