<?xml version="1.0" encoding="utf-8"?>
<!-- Generator: Adobe Illustrator 27.5.0, SVG Export Plug-In . SVG Version: 6.00 Build 0)  -->
<svg version="1.1" xmlns="http://www.w3.org/2000/svg" xmlns:xlink="http://www.w3.org/1999/xlink" x="0px" y="0px"
	 viewBox="0 0 500 500" style="disable-background" xml:space="preserve">
<g id="Floor">
	<ellipse id="Floor_3_" style="fill:none" cx="256.49" cy="345.442" rx="233.01" ry="134.528"/>
</g>
<g id="Shadows">
	<ellipse id="Shadow_19_" style="fill:#E0E0E0;" cx="254.66" cy="263.582" rx="50.641" ry="29.237"/>
	<path id="Shadow_7_" style="fill:#E0E0E0;" d="M334.389,428.744c-23.593-14.341-23.593-37.592,0-51.933
		c23.592-14.341,61.843-14.341,85.435,0c23.592,14.341,23.592,37.592,0,51.934C396.232,443.085,357.981,443.085,334.389,428.744z"/>
	<ellipse id="Shadow_13_" style="fill:#E0E0E0;" cx="107.912" cy="376.385" rx="55.129" ry="31.829"/>
</g>
<g id="Papel_planes">
	<g id="Paper_planes">
		<g>
			<g id="XMLID_558_">
				<polygon id="XMLID_640_" style="fill:#27DEBF;" points="364.276,154.514 348.198,137.857 339.204,138.552 				"/>
				<polygon id="XMLID_564_" style="fill:#27DEBF;" points="364.276,154.514 351.134,136.944 355.777,133.604 				"/>
				<polygon id="XMLID_560_" style="fill:#27DEBF;" points="351.134,136.944 350.379,140.117 364.276,154.514 				"/>
				<polygon id="XMLID_559_" style="opacity:0.3;" points="351.134,136.944 350.379,140.117 364.276,154.514 				"/>
			</g>
		</g>
		<g>
			<g id="XMLID_662_">
				<polygon id="XMLID_676_" style="fill:#27DEBF;" points="135.032,181.324 154.307,163.497 164.444,164.863 				"/>
				<polygon id="XMLID_675_" style="fill:#27DEBF;" points="135.032,181.324 151.041,162.276 145.999,158.196 				"/>
				<polygon id="XMLID_664_" style="fill:#27DEBF;" points="151.041,162.276 151.691,165.917 135.032,181.324 				"/>
				<polygon id="XMLID_663_" style="opacity:0.3;" points="151.041,162.276 151.691,165.917 135.032,181.324 				"/>
			</g>
		</g>
		<g>
			<g id="XMLID_642_">
				<polygon id="XMLID_648_" style="fill:#27DEBF;" points="317.473,243.134 338.029,229.969 347.084,232.876 				"/>
				<polygon id="XMLID_645_" style="fill:#27DEBF;" points="317.473,243.134 335.24,228.318 331.291,223.759 				"/>
				<polygon id="XMLID_644_" style="fill:#27DEBF;" points="335.24,228.318 335.239,231.756 317.473,243.134 				"/>
				<polygon id="XMLID_643_" style="opacity:0.3;" points="335.24,228.318 335.239,231.756 317.473,243.134 				"/>
			</g>
		</g>
		<g>
			<g id="XMLID_649_">
				<polygon id="XMLID_661_" style="fill:#27DEBF;" points="185.855,296.729 161.974,281.435 151.454,284.812 				"/>
				<polygon id="XMLID_660_" style="fill:#27DEBF;" points="185.855,296.729 165.214,279.516 169.801,274.219 				"/>
				<polygon id="XMLID_651_" style="fill:#27DEBF;" points="165.214,279.516 165.214,283.51 185.855,296.729 				"/>
				<polygon id="XMLID_650_" style="opacity:0.3;" points="165.214,279.516 165.214,283.51 185.855,296.729 				"/>
			</g>
		</g>
		<g>
			<g>
				<path style="fill:#E0E0E0;" d="M131.492,239.078c-0.215,0-0.407-0.15-0.452-0.369c-0.095-0.455-0.185-0.913-0.271-1.373
					c-0.046-0.252,0.12-0.494,0.371-0.54c0.248-0.041,0.494,0.12,0.54,0.371c0.084,0.454,0.172,0.905,0.265,1.354
					c0.052,0.25-0.108,0.496-0.359,0.547C131.556,239.074,131.524,239.078,131.492,239.078z"/>
			</g>
			<g>
				<path style="fill:#E0E0E0;" d="M155.887,276.286c-0.089,0-0.18-0.026-0.259-0.08c-0.788-0.532-1.572-1.096-2.334-1.676
					c-0.203-0.155-0.242-0.445-0.087-0.649c0.155-0.203,0.443-0.241,0.65-0.087c0.746,0.57,1.517,1.123,2.29,1.645
					c0.212,0.143,0.268,0.431,0.124,0.643C156.181,276.214,156.035,276.286,155.887,276.286z M151.358,272.838
					c-0.106,0-0.213-0.037-0.3-0.111c-0.716-0.61-1.435-1.255-2.135-1.92c-0.186-0.176-0.194-0.469-0.018-0.654
					c0.177-0.187,0.469-0.194,0.654-0.018c0.69,0.653,1.397,1.288,2.099,1.887c0.195,0.166,0.218,0.458,0.052,0.652
					C151.619,272.782,151.489,272.838,151.358,272.838z M147.222,268.926c-0.122,0-0.243-0.048-0.334-0.143
					c-0.65-0.677-1.3-1.39-1.934-2.119c-0.168-0.193-0.147-0.485,0.046-0.653c0.193-0.166,0.484-0.148,0.653,0.046
					c0.625,0.718,1.265,1.419,1.904,2.087c0.177,0.184,0.171,0.478-0.014,0.654C147.453,268.883,147.337,268.926,147.222,268.926z
					 M143.486,264.629c-0.137,0-0.271-0.061-0.363-0.176c-0.585-0.739-1.166-1.51-1.727-2.292c-0.149-0.207-0.102-0.497,0.106-0.646
					c0.207-0.148,0.497-0.103,0.646,0.106c0.554,0.77,1.126,1.53,1.701,2.256c0.16,0.201,0.125,0.492-0.075,0.65
					C143.688,264.595,143.587,264.629,143.486,264.629z M140.165,260.005c-0.151,0-0.299-0.074-0.388-0.211
					c-0.518-0.798-1.025-1.618-1.508-2.439c-0.13-0.22-0.056-0.504,0.164-0.633c0.221-0.131,0.505-0.057,0.633,0.164
					c0.481,0.819,0.977,1.619,1.487,2.403c0.14,0.215,0.079,0.501-0.136,0.641C140.34,259.98,140.252,260.005,140.165,260.005z
					 M137.281,255.097c-0.166,0-0.327-0.09-0.409-0.247c-0.446-0.846-0.877-1.709-1.281-2.567c-0.109-0.232-0.009-0.508,0.221-0.616
					c0.232-0.11,0.507-0.009,0.616,0.221c0.398,0.846,0.822,1.697,1.262,2.529c0.12,0.227,0.033,0.507-0.193,0.626
					C137.428,255.08,137.355,255.097,137.281,255.097z M134.857,249.944c-0.181,0-0.353-0.107-0.427-0.285
					c-0.363-0.872-0.713-1.772-1.04-2.675c-0.086-0.24,0.038-0.506,0.278-0.593c0.242-0.085,0.506,0.038,0.594,0.278
					c0.321,0.89,0.665,1.775,1.023,2.633c0.099,0.236-0.013,0.508-0.249,0.606C134.977,249.933,134.917,249.944,134.857,249.944z
					 M132.921,244.591c-0.197,0-0.381-0.127-0.443-0.327c-0.283-0.911-0.547-1.84-0.784-2.759c-0.065-0.248,0.085-0.5,0.332-0.564
					c0.251-0.067,0.5,0.085,0.564,0.332c0.234,0.905,0.494,1.819,0.773,2.717c0.076,0.244-0.061,0.503-0.306,0.579
					C133.012,244.585,132.966,244.591,132.921,244.591z"/>
			</g>
			<g>
				<path style="fill:#E0E0E0;" d="M159.509,278.485c-0.075,0-0.15-0.018-0.22-0.056c-0.407-0.22-0.816-0.449-1.224-0.688
					c-0.22-0.129-0.294-0.413-0.165-0.634c0.13-0.22,0.412-0.293,0.634-0.165c0.399,0.234,0.798,0.459,1.195,0.673
					c0.225,0.122,0.309,0.403,0.187,0.628C159.833,278.397,159.674,278.485,159.509,278.485z"/>
			</g>
		</g>
		<g>
			<g>
				<path style="fill:#E0E0E0;" d="M199.604,144.762c-0.24,0-0.443-0.187-0.46-0.431c-0.018-0.255,0.174-0.477,0.429-0.494
					c0.463-0.033,0.929-0.063,1.393-0.088c0.238-0.004,0.474,0.18,0.488,0.437c0.014,0.255-0.181,0.474-0.437,0.488
					c-0.461,0.026-0.92,0.055-1.38,0.086C199.626,144.761,199.616,144.762,199.604,144.762z"/>
			</g>
			<g>
				<path style="fill:#E0E0E0;" d="M159.325,158.822c-0.145,0-0.289-0.068-0.379-0.197c-0.147-0.21-0.097-0.499,0.112-0.646
					c0.741-0.52,1.491-1.028,2.25-1.522c0.212-0.137,0.5-0.081,0.641,0.136c0.14,0.215,0.079,0.501-0.136,0.641
					c-0.75,0.488-1.491,0.988-2.222,1.503C159.51,158.795,159.417,158.822,159.325,158.822z M163.848,155.879
					c-0.157,0-0.311-0.081-0.397-0.225c-0.132-0.219-0.061-0.504,0.158-0.635c0.777-0.465,1.561-0.917,2.354-1.356
					c0.223-0.122,0.505-0.043,0.63,0.181c0.123,0.224,0.043,0.505-0.181,0.63c-0.783,0.433-1.558,0.879-2.325,1.339
					C164.012,155.857,163.93,155.879,163.848,155.879z M168.574,153.269c-0.169,0-0.331-0.093-0.413-0.255
					c-0.116-0.228-0.025-0.506,0.204-0.622c0.806-0.408,1.62-0.804,2.441-1.186c0.233-0.109,0.508-0.007,0.615,0.224
					c0.108,0.233,0.008,0.508-0.224,0.615c-0.812,0.378-1.616,0.769-2.415,1.173C168.716,153.253,168.644,153.269,168.574,153.269z
					 M173.467,150.996c-0.18,0-0.351-0.106-0.426-0.283c-0.1-0.234,0.01-0.507,0.246-0.607c0.833-0.353,1.672-0.691,2.518-1.016
					c0.242-0.09,0.507,0.027,0.598,0.266c0.092,0.239-0.028,0.507-0.266,0.598c-0.837,0.321-1.666,0.655-2.49,1.005
					C173.589,150.983,173.528,150.996,173.467,150.996z M178.507,149.061c-0.192,0-0.371-0.121-0.438-0.312
					c-0.083-0.241,0.045-0.505,0.287-0.589c0.854-0.295,1.714-0.575,2.58-0.843c0.248-0.078,0.503,0.063,0.579,0.306
					c0.075,0.244-0.062,0.504-0.306,0.579c-0.856,0.264-1.707,0.542-2.551,0.834C178.609,149.052,178.557,149.061,178.507,149.061z
					 M183.664,147.47c-0.204,0-0.39-0.136-0.447-0.342c-0.067-0.247,0.079-0.501,0.326-0.569c0.872-0.237,1.749-0.461,2.63-0.669
					c0.252-0.058,0.499,0.095,0.557,0.343c0.06,0.249-0.094,0.499-0.343,0.557c-0.872,0.207-1.738,0.428-2.602,0.664
					C183.744,147.465,183.704,147.47,183.664,147.47z M188.913,146.224c-0.215,0-0.408-0.152-0.453-0.371
					c-0.05-0.251,0.111-0.495,0.362-0.546c0.885-0.179,1.775-0.346,2.668-0.498c0.251-0.033,0.491,0.126,0.535,0.379
					c0.043,0.253-0.127,0.492-0.379,0.535c-0.884,0.15-1.764,0.314-2.64,0.492C188.975,146.221,188.945,146.224,188.913,146.224z
					 M194.235,145.32c-0.228,0-0.426-0.169-0.458-0.401c-0.035-0.254,0.142-0.487,0.396-0.521c0.895-0.122,1.794-0.231,2.696-0.324
					c0.246-0.031,0.481,0.158,0.508,0.413c0.027,0.254-0.158,0.481-0.413,0.508c-0.891,0.093-1.779,0.199-2.665,0.32
					C194.278,145.318,194.256,145.32,194.235,145.32z"/>
			</g>
			<g>
				<path style="fill:#E0E0E0;" d="M156.042,161.274c-0.137,0-0.271-0.061-0.364-0.177c-0.159-0.2-0.124-0.492,0.077-0.65
					c0.365-0.288,0.732-0.573,1.103-0.855c0.203-0.155,0.494-0.115,0.648,0.088c0.155,0.203,0.116,0.494-0.088,0.648
					c-0.366,0.278-0.729,0.56-1.09,0.846C156.244,161.24,156.143,161.274,156.042,161.274z"/>
			</g>
		</g>
		<g>
			<path style="fill:#E0E0E0;" d="M340.825,225.597c-0.141,0-0.282-0.066-0.372-0.188c-0.152-0.206-0.108-0.496,0.097-0.648
				l0.665-0.492c0.203-0.153,0.497-0.111,0.647,0.095c0.153,0.205,0.11,0.496-0.095,0.647l-0.667,0.494
				C341.017,225.568,340.921,225.597,340.825,225.597z M343.693,223.408c-0.136,0-0.271-0.06-0.363-0.175
				c-0.159-0.2-0.125-0.492,0.074-0.651c0.719-0.572,1.432-1.156,2.138-1.752c0.197-0.165,0.487-0.141,0.653,0.054
				c0.164,0.196,0.14,0.488-0.055,0.653c-0.714,0.603-1.435,1.193-2.159,1.77C343.896,223.374,343.795,223.408,343.693,223.408z
				 M347.935,219.817c-0.126,0-0.253-0.052-0.344-0.154c-0.172-0.19-0.156-0.482,0.034-0.653c0.684-0.616,1.359-1.244,2.025-1.885
				c0.184-0.178,0.478-0.174,0.654,0.012c0.178,0.184,0.172,0.478-0.012,0.654c-0.674,0.648-1.357,1.284-2.048,1.906
				C348.157,219.777,348.046,219.817,347.935,219.817z M351.944,215.962c-0.116,0-0.233-0.044-0.323-0.131
				c-0.183-0.178-0.187-0.472-0.01-0.655c0.641-0.66,1.273-1.332,1.893-2.016c0.171-0.189,0.463-0.204,0.654-0.031
				c0.189,0.172,0.203,0.464,0.031,0.654c-0.628,0.691-1.266,1.371-1.914,2.038C352.185,215.915,352.065,215.962,351.944,215.962z
				 M355.677,211.843c-0.105,0-0.212-0.036-0.299-0.109c-0.195-0.165-0.219-0.458-0.055-0.653c0.593-0.703,1.173-1.418,1.741-2.144
				c0.158-0.2,0.449-0.236,0.65-0.08c0.201,0.157,0.237,0.448,0.08,0.65c-0.573,0.736-1.161,1.46-1.762,2.172
				C355.939,211.787,355.807,211.843,355.677,211.843z M359.095,207.46c-0.094,0-0.189-0.028-0.271-0.087
				c-0.207-0.149-0.254-0.439-0.105-0.647c0.536-0.745,1.059-1.504,1.566-2.272c0.141-0.216,0.431-0.273,0.641-0.132
				c0.214,0.141,0.272,0.427,0.132,0.641c-0.513,0.78-1.043,1.548-1.587,2.304C359.38,207.393,359.238,207.46,359.095,207.46z
				 M362.15,202.82c-0.082,0-0.163-0.022-0.238-0.066c-0.219-0.131-0.29-0.416-0.159-0.635c0.472-0.787,0.927-1.587,1.364-2.396
				c0.121-0.226,0.405-0.309,0.628-0.187c0.225,0.122,0.309,0.403,0.187,0.628c-0.443,0.821-0.906,1.632-1.385,2.433
				C362.46,202.739,362.307,202.82,362.15,202.82z M364.79,197.93c-0.067,0-0.137-0.015-0.201-0.047
				c-0.231-0.111-0.327-0.388-0.216-0.618c0.4-0.828,0.783-1.672,1.139-2.51c0.101-0.234,0.374-0.343,0.608-0.245
				c0.235,0.101,0.345,0.372,0.245,0.608c-0.363,0.852-0.752,1.71-1.158,2.55C365.127,197.833,364.962,197.93,364.79,197.93z
				 M366.963,192.817c-0.053,0-0.107-0.009-0.16-0.028c-0.24-0.088-0.364-0.354-0.275-0.594c0.32-0.87,0.619-1.749,0.889-2.611
				c0.076-0.244,0.336-0.385,0.579-0.304c0.244,0.076,0.381,0.335,0.304,0.579c-0.273,0.877-0.577,1.771-0.902,2.655
				C367.328,192.701,367.152,192.817,366.963,192.817z M368.618,187.512c-0.038,0-0.076-0.005-0.115-0.015
				c-0.248-0.063-0.397-0.315-0.333-0.563c0.229-0.894,0.435-1.797,0.613-2.683c0.05-0.251,0.299-0.416,0.545-0.363
				c0.251,0.05,0.413,0.294,0.363,0.545c-0.181,0.902-0.391,1.821-0.625,2.731C369.013,187.373,368.825,187.512,368.618,187.512z
				 M369.714,182.07c-0.023,0-0.046-0.002-0.068-0.006c-0.253-0.037-0.428-0.272-0.39-0.525c0.133-0.91,0.244-1.83,0.328-2.732
				c0.024-0.255,0.272-0.435,0.504-0.419c0.254,0.024,0.443,0.25,0.419,0.504c-0.086,0.92-0.198,1.856-0.335,2.782
				C370.138,181.904,369.94,182.07,369.714,182.07z M370.23,176.543c-0.006,0-0.012,0-0.019-0.001
				c-0.255-0.01-0.454-0.226-0.443-0.481c0.029-0.709,0.044-1.424,0.044-2.143l-0.005-0.61c-0.002-0.256,0.203-0.465,0.459-0.468
				c0.002,0,0.004,0,0.005,0c0.253,0,0.46,0.205,0.463,0.459l0.005,0.614c0,0.737-0.015,1.463-0.046,2.186
				C370.682,176.347,370.477,176.543,370.23,176.543z M370.167,170.991c-0.243,0-0.447-0.189-0.462-0.435
				c-0.056-0.91-0.138-1.833-0.241-2.744c-0.028-0.254,0.154-0.483,0.408-0.513c0.248-0.028,0.483,0.153,0.513,0.408
				c0.104,0.927,0.187,1.866,0.245,2.791c0.015,0.255-0.178,0.475-0.434,0.491C370.186,170.99,370.177,170.991,370.167,170.991z
				 M369.545,165.471c-0.223,0-0.42-0.162-0.456-0.389c-0.144-0.893-0.315-1.804-0.506-2.71c-0.053-0.251,0.107-0.496,0.357-0.549
				c0.256-0.05,0.497,0.108,0.549,0.357c0.195,0.92,0.367,1.847,0.514,2.753c0.041,0.253-0.13,0.49-0.383,0.531
				C369.596,165.469,369.57,165.471,369.545,165.471z"/>
		</g>
		<g>
			<path style="fill:#E0E0E0;" d="M342.206,132.174c-0.085,0-0.17-0.024-0.247-0.071c-0.778-0.491-1.566-0.965-2.364-1.422
				c-0.221-0.127-0.298-0.41-0.171-0.632c0.127-0.222,0.41-0.298,0.632-0.171c0.808,0.463,1.607,0.945,2.396,1.441
				c0.217,0.137,0.281,0.423,0.145,0.639C342.51,132.097,342.359,132.174,342.206,132.174z M337.388,129.41
				c-0.072,0-0.145-0.017-0.214-0.052c-0.816-0.424-1.641-0.834-2.472-1.226c-0.232-0.109-0.33-0.384-0.221-0.616
				c0.109-0.23,0.387-0.33,0.616-0.221c0.843,0.398,1.678,0.811,2.505,1.241c0.227,0.119,0.315,0.398,0.198,0.625
				C337.716,129.318,337.555,129.41,337.388,129.41z M332.362,127.043c-0.061,0-0.121-0.012-0.18-0.037
				c-0.848-0.36-1.701-0.702-2.562-1.028c-0.239-0.091-0.359-0.358-0.269-0.597c0.091-0.239,0.358-0.362,0.597-0.269
				c0.872,0.331,1.737,0.678,2.594,1.042c0.236,0.1,0.346,0.372,0.246,0.607C332.714,126.936,332.543,127.043,332.362,127.043z
				 M327.17,125.072c-0.048,0-0.099-0.008-0.147-0.025c-0.874-0.293-1.751-0.571-2.634-0.832c-0.245-0.073-0.384-0.33-0.312-0.576
				c0.073-0.245,0.329-0.381,0.576-0.312c0.892,0.265,1.781,0.546,2.664,0.843c0.243,0.082,0.373,0.344,0.292,0.586
				C327.544,124.949,327.363,125.072,327.17,125.072z M321.842,123.495c-0.038,0-0.076-0.005-0.115-0.015
				c-0.892-0.228-1.787-0.441-2.687-0.635c-0.25-0.055-0.408-0.301-0.354-0.552c0.055-0.249,0.301-0.404,0.552-0.354
				c0.91,0.198,1.816,0.413,2.719,0.645c0.248,0.063,0.397,0.315,0.333,0.563C322.237,123.356,322.049,123.495,321.842,123.495z
				 M316.415,122.314c-0.027,0-0.055-0.003-0.083-0.008c-0.907-0.163-1.815-0.31-2.726-0.44c-0.254-0.036-0.429-0.271-0.393-0.524
				c0.036-0.253,0.279-0.428,0.524-0.393c0.922,0.132,1.842,0.28,2.758,0.445c0.253,0.046,0.42,0.286,0.374,0.537
				C316.829,122.157,316.634,122.314,316.415,122.314z M310.917,121.528c-0.017,0-0.033-0.001-0.05-0.003
				c-0.915-0.098-1.832-0.179-2.75-0.244c-0.255-0.017-0.447-0.238-0.429-0.494c0.018-0.255,0.214-0.454,0.494-0.429
				c0.929,0.065,1.857,0.146,2.784,0.246c0.254,0.028,0.439,0.255,0.411,0.51C311.351,121.352,311.15,121.528,310.917,121.528z"/>
		</g>
	</g>
</g>
<g id="Speech_Bubbles">
	<g id="Speach_Bubble_2_">
		<g id="XMLID_43_">
			<g id="XMLID_68_">
				<g id="XMLID_72_">
					<path id="XMLID_73_" style="fill:#27DEBF;" d="M383.954,142.077l7.855-4.537c0.156-0.071,0.284-0.17,0.369-0.326l1.446-2.524
						l-4.665-2.694l0.142,0.411L383.954,142.077z"/>
				</g>
				<g id="XMLID_70_" style="opacity:0.1;">
					<path id="XMLID_71_" d="M383.954,142.077l7.855-4.537c0.156-0.071,0.284-0.17,0.369-0.326l1.446-2.524l-4.665-2.694
						l0.142,0.411L383.954,142.077z"/>
				</g>
				<path id="XMLID_69_" style="fill:#27DEBF;" d="M389.671,132.38l-5.437,9.417c-0.347,0.602-1.242,0.517-1.469-0.14l-5.746-16.587
					L389.671,132.38z"/>
			</g>
			<path id="XMLID_67_" style="fill:#27DEBF;" d="M333.816,64.983c0-2.423,1.701-5.369,3.799-6.581l-0.003,0.006
				c2.098-1.211,5.5-1.211,7.598,0l61.519,35.485c2.098,1.212,3.799,4.157,3.799,6.581v31.154c0,2.423-1.702,5.369-3.799,6.581
				l0.003-0.006c-2.098,1.212-5.5,1.212-7.599,0L337.26,102.46c-3.413-1.946-3.445-3.899-3.445-6.323L333.816,64.983z"/>
			<g id="XMLID_61_">
				<g id="XMLID_64_">
					<path id="XMLID_66_" style="fill:#455A64;" d="M390.082,110.758l-43.944-25.494c-1.272-0.734-2.302-0.399-2.302,0.749
						c0,1.148,1.031,2.674,2.302,3.408l43.944,25.493c1.272,0.734,2.302,0.399,2.302-0.749
						C392.384,113.018,391.353,111.492,390.082,110.758z"/>
					<path id="XMLID_65_" style="fill:#455A64;" d="M376.767,111.928l-30.629-17.753c-1.272-0.734-2.302-0.399-2.302,0.749
						s1.031,2.674,2.302,3.408l30.629,17.753c1.272,0.734,2.303,0.399,2.303-0.749C379.069,114.188,378.038,112.662,376.767,111.928
						z"/>
				</g>
				<g id="XMLID_62_">
					<path id="XMLID_63_" style="fill:#455A64;" d="M390.082,101.772l-43.944-25.493c-1.272-0.734-2.302-0.399-2.302,0.749
						c0,1.148,1.031,2.674,2.302,3.408l43.944,25.493c1.272,0.734,2.302,0.399,2.302-0.749
						C392.384,104.032,391.353,102.506,390.082,101.772z"/>
				</g>
			</g>
			<path id="XMLID_60_" style="opacity:0.1;" d="M410.528,131.628c0,2.423-1.702,5.369-3.799,6.581l0.003-0.006
				c-1.897,1.095-4.848,1.203-6.949,0.318c1.788,0.676,3.15-0.345,3.15-2.512l0-31.154c0-1.212-0.426-2.554-1.113-3.745l7.595-4.381
				c0.688,1.19,1.113,2.533,1.113,3.744V131.628z"/>
			<path id="XMLID_59_" style="opacity:0.3;fill:#FFFFFF;" d="M333.94,63.903c0.443-1.613,1.914-2.127,3.669-1.117l61.527,35.491
				c1.045,0.603,2.003,1.631,2.676,2.836l7.591-4.376c-0.691-1.205-1.63-2.233-2.676-2.836l-61.51-35.491
				c-2.109-1.205-5.512-1.205-7.604,0l-0.005-0.002C335.818,59.437,334.312,61.741,333.94,63.903z"/>
		</g>
	</g>
	<g id="Speach_Bubble_1_">
		<g id="XMLID_49_">
			<g id="XMLID_57_">
				<path id="XMLID_58_" style="fill:#27DEBF;" d="M100.257,118.24l-7.513-4.34c-0.149-0.068-0.271-0.163-0.353-0.312l-1.383-2.414
					l4.461-2.577l-0.135,0.393L100.257,118.24z"/>
			</g>
			<g id="XMLID_55_" style="opacity:0.55;">
				<path id="XMLID_56_" style="fill:#FFFFFF;" d="M100.257,118.24l-7.513-4.34c-0.149-0.068-0.271-0.163-0.353-0.312l-1.383-2.414
					l4.461-2.577l-0.135,0.393L100.257,118.24z"/>
			</g>
			<path id="XMLID_54_" style="fill:#27DEBF;" d="M94.79,108.966l5.2,9.007c0.332,0.576,1.188,0.494,1.405-0.134l5.496-15.864
				L94.79,108.966z"/>
			<path id="XMLID_53_" style="opacity:0.7;fill:#FFFFFF;" d="M94.79,108.966l5.2,9.007c0.332,0.576,1.188,0.494,1.405-0.134
				l5.496-15.864L94.79,108.966z"/>
			<path id="XMLID_52_" style="fill:#27DEBF;" d="M114.563,63.657c0-2.317-1.627-5.135-3.633-6.294l0.003,0.006
				c-2.006-1.159-5.26-1.159-7.267,0L44.828,91.307c-2.007,1.159-3.634,3.976-3.634,6.294v29.796c0,2.317,1.627,5.135,3.634,6.293
				l-0.003-0.006c2.007,1.159,5.261,1.159,7.267,0l59.176-34.184c3.265-1.861,3.294-3.729,3.294-6.047L114.563,63.657z"/>
			<path style="opacity:0.7;fill:#FFFFFF;" d="M114.566,63.658v29.796c0,2.321-0.03,4.189-3.295,6.048L52.09,133.688
				c-0.201,0.111-0.402,0.211-0.623,0.301c-0.03,0.01-0.05,0.02-0.08,0.03c-0.03,0.02-0.07,0.03-0.1,0.04
				c-0.05,0.02-0.09,0.04-0.14,0.05c0.02-0.01,0.04-0.02,0.06-0.03c-1.577,0.452-2.743-0.532-2.743-2.491v-29.796
				c0-1.165,0.402-2.441,1.055-3.586l0.01,0.01c0.643-1.155,1.557-2.14,2.562-2.712l58.849-33.945
				c1.678-0.964,3.084-0.472,3.506,1.065c-0.101-0.583-0.291-1.175-0.543-1.748C114.325,61.799,114.566,62.754,114.566,63.658z"/>
			<path id="XMLID_51_" style="opacity:0.55;fill:#FFFFFF;" d="M41.195,127.396c0,2.317,1.627,5.135,3.634,6.293l-0.003-0.006
				c1.814,1.047,4.637,1.15,6.646,0.305c-1.71,0.647-3.012-0.33-3.012-2.403l0-29.796c0-1.159,0.407-2.442,1.064-3.581l-7.264-4.19
				c-0.657,1.139-1.064,2.422-1.064,3.581V127.396z"/>
			<path id="XMLID_50_" style="opacity:0.85;fill:#FFFFFF;" d="M114.444,62.624c-0.424-1.543-1.831-2.034-3.509-1.068L52.09,95.5
				c-1,0.576-1.915,1.56-2.56,2.712l-7.26-4.185c0.661-1.153,1.56-2.136,2.559-2.712l58.827-33.944c2.017-1.153,5.272-1.153,7.272,0
				l0.005-0.002C112.647,58.353,114.088,60.556,114.444,62.624z"/>
		</g>
		<g id="XMLID_46_">
			<path id="XMLID_48_" style="fill:#455A64;" d="M58.224,108.897l42.028-24.382c1.216-0.702,2.202-0.382,2.202,0.716
				c0,1.098-0.986,2.557-2.202,3.259l-42.028,24.381c-1.216,0.702-2.202,0.382-2.202-0.716
				C56.022,111.058,57.008,109.599,58.224,108.897z"/>
			<path id="XMLID_47_" style="fill:#455A64;" d="M58.224,117.519l29.294-16.979c1.216-0.702,2.202-0.381,2.202,0.717
				c0,1.098-0.986,2.557-2.202,3.259l-29.294,16.978c-1.216,0.702-2.202,0.381-2.202-0.716
				C56.022,119.68,57.008,118.221,58.224,117.519z"/>
		</g>
		<g id="XMLID_44_">
			<path id="XMLID_45_" style="fill:#455A64;" d="M58.224,100.303l42.028-24.382c1.216-0.702,2.202-0.381,2.202,0.717
				s-0.986,2.557-2.202,3.259l-42.028,24.381c-1.216,0.702-2.202,0.381-2.202-0.716C56.022,102.464,57.008,101.005,58.224,100.303z"
				/>
		</g>
	</g>
	<g id="Speach_Bubble_10_">
		<g id="XMLID_543_">
			<path style="fill:#455A64;" d="M223.275,49.98c-0.143-0.083-0.311-0.131-0.499-0.131l-9.108,0l-3.761,2.172v13.031l3.761-2.172
				l3.251-3.754v9.974l3.762-2.172l9.86-11.385c0.435-0.503,0.252-1.223-0.255-1.515C230.144,53.944,223.78,50.272,223.275,49.98z"
				/>
			<path style="fill:#37474F;" d="M216.919,69.098l3.762-2.172l9.86-11.385c0.558-0.644,0.1-1.645-0.752-1.645h-9.108l-3.761,2.172
				V69.098z"/>
			<path id="XMLID_548_" style="fill:#37474F;" d="M220.684,46.236c0-2.136-1.499-4.733-3.349-5.801l0.003,0.005
				c-1.85-1.068-4.849-1.068-6.699,0l-54.236,31.284c-1.85,1.068-3.35,3.665-3.35,5.802v27.466c0,2.136,1.5,4.733,3.35,5.801
				l-0.003-0.005c1.85,1.068,4.849,1.068,6.699,0l54.548-31.511c3.009-1.715,3.037-3.438,3.037-5.574L220.684,46.236z"/>
			<path id="XMLID_547_" style="fill:#263238;" d="M153.053,104.991c0,2.136,1.5,4.733,3.35,5.801l-0.003-0.005
				c1.672,0.965,4.274,1.061,6.127,0.281c-1.576,0.596-2.777-0.304-2.777-2.215l0-27.466c0-1.068,0.375-2.251,0.981-3.301
				l-6.696-3.862c-0.606,1.05-0.981,2.233-0.981,3.301V104.991z"/>
			<path id="XMLID_544_" style="fill:#455A64;" d="M220.574,45.284c-0.391-1.422-1.687-1.875-3.234-0.984l-54.243,31.289
				c-0.922,0.531-1.766,1.438-2.36,2.5l-6.692-3.858c0.609-1.063,1.438-1.969,2.359-2.5l54.227-31.289
				c1.86-1.063,4.86-1.063,6.704,0l0.005-0.002C218.918,41.346,220.246,43.378,220.574,45.284z"/>
		</g>
		<g>
			<g id="XMLID_509_">
				<path id="XMLID_518_" style="fill:#27DEBF;" d="M170.684,87.022l38.741-22.475c1.121-0.647,2.03-0.352,2.03,0.66
					s-0.909,2.357-2.03,3.005l-38.741,22.475c-1.121,0.647-2.03,0.352-2.03-0.66C168.654,89.014,169.563,87.669,170.684,87.022z"/>
				<path id="XMLID_515_" style="fill:#27DEBF;" d="M182.423,88.159l27.003-15.652c1.121-0.647,2.03-0.351,2.03,0.661
					c0,1.012-0.909,2.357-2.03,3.004l-27.003,15.651c-1.121,0.647-2.03,0.352-2.03-0.66
					C180.393,90.151,181.302,88.807,182.423,88.159z"/>
			</g>
			<g id="XMLID_507_">
				<path id="XMLID_508_" style="fill:#27DEBF;" d="M170.684,79.1l38.741-22.475c1.121-0.647,2.03-0.352,2.03,0.66
					c0,1.012-0.909,2.357-2.03,3.004l-38.741,22.475c-1.121,0.647-2.03,0.352-2.03-0.66S169.563,79.747,170.684,79.1z"/>
			</g>
		</g>
	</g>
</g>
<g id="Character_3">
	<g id="Character_1_">
		<g>
			<g id="Character_9_">
				<g id="XMLID_429_">
					<path id="XMLID_432_" style="fill:#27DEBF;" d="M398.085,197.739c5.159-1.148,10.964,1.042,14.892,9.266
						c3.763,7.878,14.64,31.062,14.89,36.626c0.26,5.771-23.231,23.737-22.57,23.425c0.203-0.096-5.252-11.107-5.252-11.107
						l11.935-14.854l-6.757-13.303L398.085,197.739z"/>
				</g>
			</g>
			<g id="Character_10_" style="opacity:0.35;">
				<g id="XMLID_359_">
					<path id="XMLID_360_" d="M398.085,197.739c5.159-1.148,10.964,1.042,14.892,9.266c3.763,7.878,14.64,31.062,14.89,36.626
						c0.26,5.771-23.231,23.737-22.57,23.425c0.203-0.096-5.252-11.107-5.252-11.107l11.935-14.854l-6.757-13.303L398.085,197.739z"
						/>
				</g>
			</g>
		</g>
		<g>
			<g id="XMLID_606_">
				<g id="XMLID_633_">
					<path id="XMLID_636_" style="fill:#263238;" d="M407.075,384.731c0.685,0.256,1.077,1.547,1.381,4.702
						c0.188,1.953,0.854,4.537-2.125,6.122c-1.695,0.902-4.747,1.351-7.043-0.074c-2.579-1.6-3.885-4.559-6.911-6.932
						c-2.654-2.08-5.963-3.617-8.14-7.405c-2.256-3.925-1.798-6.312,2.605-6.317c7.077-0.008,9.198,3.9,12.837,3.982
						C401.711,378.855,406.39,384.475,407.075,384.731z"/>
				</g>
				<g id="XMLID_630_">
					<path id="XMLID_632_" style="fill:#FFA8A7;" d="M407.067,383.175l0.016,3.181c0.001,1.557-6.613,3.874-8.466,0.322
						c-0.141-0.306-0.859-4.663-0.859-4.663L407.067,383.175z"/>
				</g>
				<g id="XMLID_624_">
					<path id="XMLID_627_" style="fill:#263238;" d="M376.413,403.252c0,0,1.256,0,1.751,5.132c0.188,1.953,0.656,5.962-0.01,7.412
						c-0.666,1.45-4.284,2.092-8.34,2.456c-3.027,0.272-5.76,1.735-8.566,3.32c-2.588,1.462-5.759,2.37-8.681,2.392
						c-3.834,0.03-7.081-0.383-9.815-2.545c-1.456-1.151-3.298-3.575-1.949-5.404c0.481-0.652,1.315-0.807,2.047-1.079
						c1.707-0.636,3.432-1.221,5.169-1.766c2.587-0.812,5.157-1.713,7.593-2.913c3.58-1.764,7.569-3.74,10.274-6.756
						L376.413,403.252z"/>
				</g>
				<g id="XMLID_621_">
					<path id="XMLID_623_" style="fill:#FFA8A7;" d="M376.394,400.597c0,0,0,2.361,0.019,3.71c0.019,1.349-1.564,3.367-5.689,3.241
						c-2.897-0.089-4.923-0.857-4.821-3.243l-0.018-3.439L376.394,400.597z"/>
				</g>
				<g id="XMLID_607_">
					<path id="XMLID_610_" style="fill:#37474F;" d="M408.921,340.953c-1.509-10.386-3.84-16.547-3.84-16.547
						s1.063-14.299,1.539-27.853c0.514-14.641-0.238-32.726-1.159-41.639c0,0-46.063-4.368-46.819,12.558
						c-0.756,16.925,0.34,59.984,0.937,67.415c0.596,7.431,1.195,14.397,2.767,28.224c1.354,11.91,3.541,37.755,3.541,37.755
						c5.41,2.889,10.508-0.269,10.508-0.269s3.471-34.705,3.868-43.28c0.515-11.115-2.076-17.249-2.076-17.249
						s0.985-6.995,2.694-21.373c1.208-10.159,2.824-21.729,2.824-21.729s1.572,14.322,2.529,22.304
						c0.888,7.401,2.388,13.252,4.609,27.048c1.927,11.968,7.187,37.304,7.187,37.304c5.411,2.89,9.038-0.447,9.038-0.447
						S410.43,351.338,408.921,340.953z"/>
				</g>
			</g>
			<path d="M383.704,296.966l2.178-14.14c0,0,8.964-2.851,13.522-8.186c0,0-2.431,6.211-10.787,9.554l-3.346,11.907l-0.572,9.824
				L383.704,296.966z"/>
		</g>
		<g>
			<polygon id="XMLID_593_" style="fill:#FFA8A7;" points="376.139,193.617 378.29,208.732 391.887,208.261 390.58,190.6 			"/>
			<g id="XMLID_589_">
				<path id="XMLID_590_" style="fill:#F28F8F;" d="M366.378,174.959c0,0-3.648,5.35-3.251,5.887
					c0.398,0.537,3.012,1.058,3.012,1.058L366.378,174.959z"/>
			</g>
			<g id="XMLID_585_">
				<path id="XMLID_586_" style="fill:#263238;" d="M367.575,178.452c-2.449-0.039-4.41-2.063-4.371-4.513
					c0.039-2.449,2.063-4.41,4.512-4.372c2.449,0.039,4.41,2.063,4.371,4.512C372.048,176.53,370.024,178.491,367.575,178.452z
					 M367.7,170.556c-1.905-0.03-3.479,1.495-3.508,3.399c-0.03,1.905,1.494,3.479,3.399,3.51c1.905,0.03,3.478-1.496,3.508-3.4
					C371.129,172.159,369.604,170.586,367.7,170.556z"/>
			</g>
			<g id="XMLID_583_">
				<path id="XMLID_584_" style="fill:#FFA8A7;" d="M376.507,160.159c-7.234,1.407-9.366,4.543-10.226,15.986
					c-0.899,11.957,0.264,15.738,1.81,17.375c1.044,1.104,6.939,1.394,9.927,0.621c3.74-0.968,12.203-3.817,16.24-9.775
					c4.748-7.01,6.118-16.589,1.216-20.605C388.577,158.108,379.451,159.586,376.507,160.159z"/>
			</g>
			<path style="fill:#F28F8F;" d="M376.253,194.444c-3.112,0.343-7.297-0.011-8.162-0.925c3.476,0.215,7.737-1.523,7.737-1.523
				L376.253,194.444z"/>
			<g id="XMLID_580_">
				<g id="XMLID_581_">
					<path id="XMLID_582_" style="fill:#263238;" d="M363.677,162.969c-0.004,1.041,0.365,2.085,1.045,2.875
						c1.117,1.298,3.267,1.921,4.908,1.441c-0.411,1.111-0.173,2.437,0.599,3.336c0.772,0.899,2.046,1.335,3.206,1.098
						c-0.343,0.086,0.573,2.752,0.666,3.019c0.345,0.992,0.91,1.867,1.901,2.308c0,0,1.266-4.61,5.157-3.967
						c3.918,0.648,4.368,5.661,1.846,8.663c-2.523,3.002-4.811,1.799-4.811,1.799s0.017,6.618,2.888,10.41
						c0,0,3.319,1.132,9.475-0.078c3.783-0.745,9.19-5.374,11.511-10.33c4.909-10.483,5.39-19.979-1.306-22.933
						c-0.267-0.125-0.366-1.42-0.441-1.697c-0.203-0.742-0.467-1.456-0.87-2.116c-0.875-1.429-2.241-2.54-3.742-3.259
						c-2.204-1.056-4.687-1.361-7.126-1.519c-2.439-0.158-4.905-0.186-7.285-0.742c-2.146-0.502-4.169-1.421-6.264-2.102
						c-2.096-0.682-4.349-1.126-6.499-0.641c-2.15,0.485-4.162,2.083-4.582,4.247c-0.472,2.431,0.941,4.451,2.406,6.228
						c-1.264,0.52-2.249,1.671-2.567,2.999C363.716,162.323,363.679,162.646,363.677,162.969z"/>
				</g>
			</g>
			<g id="XMLID_569_">
				<g id="XMLID_573_">
					<g id="XMLID_574_">
						<path id="XMLID_575_" style="fill:#263238;" d="M399.797,162.965l4.355-2.475c-0.684-1.202-2.212-1.623-3.415-0.94
							C399.535,160.234,399.114,161.763,399.797,162.965z"/>
					</g>
				</g>
				<g id="XMLID_570_">
					<g id="XMLID_571_">
						<path id="XMLID_572_" style="fill:#263238;" d="M375.928,179.637l0.212-5.004c-1.382-0.059-2.55,1.014-2.608,2.396
							C373.473,178.411,374.546,179.579,375.928,179.637z"/>
					</g>
				</g>
			</g>
			<polygon id="XMLID_568_" style="fill:#263238;" points="363.633,173.019 377.018,174.966 376.463,175.9 363.617,174.026 			"/>
		</g>
		<g>
			<g id="XMLID_566_">
				<path id="XMLID_567_" style="fill:#27DEBF;" d="M406.9,206.111c-1.587-6.203-3.827-8.229-9.227-8.374
					c-1.617-0.043-7.133,0.821-8.301,1.06c-0.567,2.62-7.342,4.404-14.199,2.987c-2.039,0.596-7.437,2.064-9.132,2.678
					c-4.852,1.761-7.202,6.799-7.523,22.792c0,0-0.929,37.928,0.013,44.476c12.232,4.768,24.927,4.555,31.937,2.986
					c14.592-3.266,16.323-9.335,16.323-9.335s-0.765-15.222-1.261-26.798c0.732-7.371,1.831-12.915,2.228-18.794
					C408.161,213.834,407.497,208.446,406.9,206.111z"/>
			</g>
			<g id="XMLID_556_" style="opacity:0.2;">
				<path id="XMLID_565_" d="M406.9,206.111c-1.587-6.203-3.827-8.229-9.227-8.374c-1.617-0.043-7.133,0.821-8.301,1.06
					c-0.567,2.62-7.342,4.404-14.199,2.987c-2.039,0.596-7.437,2.064-9.132,2.678c-4.852,1.761-7.202,6.799-7.523,22.792
					c0,0-0.929,37.928,0.013,44.476c12.232,4.768,24.927,4.555,31.937,2.986c14.592-3.266,16.323-9.335,16.323-9.335
					s-0.765-15.222-1.261-26.798c0.732-7.371,1.831-12.915,2.228-18.794C408.161,213.834,407.497,208.446,406.9,206.111z"/>
			</g>
			<g>
				<path style="fill:#27DEBF;" d="M390.896,194.875l0.108,1.454c0,0-0.716,2.054-4.841,2.82c-6.935,1.287-9.36-0.866-9.36-0.866
					l-0.178-1.248c0,0-0.665-0.274-1.79,0.592c-1.126,0.866-4.799,5.62-4.799,5.62s1.321-0.386,5.655,1.457
					c4.496,1.912,10.067,1.666,13.531,0.51c3.463-1.156,4.77-4.278,4.943-5.548C394.338,198.395,392.088,194.355,390.896,194.875z"
					/>
				<path style="opacity:0.35;" d="M390.896,194.875l0.108,1.454c0,0-0.716,2.054-4.841,2.82c-6.935,1.287-9.36-0.866-9.36-0.866
					l-0.178-1.248c0,0-0.665-0.274-1.79,0.592c-1.126,0.866-4.799,5.62-4.799,5.62s1.321-0.386,5.655,1.457
					c4.496,1.912,10.067,1.666,13.531,0.51c3.463-1.156,4.77-4.278,4.943-5.548C394.338,198.395,392.088,194.355,390.896,194.875z"
					/>
			</g>
		</g>
		<g>
			<path id="XMLID_387_" style="fill:#FFA8A7;" d="M364.506,205.081c-5.785,1.115-10.864,3.758-10.763,10.618
				c0.171,11.632-2.62,20.42-4.309,25.745c-1.804,5.688-16.636,22.704-20.295,23.77c-3.659,1.066-8.908-1.235-10.178,0.607
				c-1.27,1.843,3.77,4.092,3.968,5.044c0.198,0.951-6.184,3.43-10.075,2.759c-3.891-0.671-2.947,4.087,2.917,6.711
				c5.864,2.624,13.105-0.398,20.056-5.594c6.952-5.196,20.867-16.302,24.452-23.957c4.349-9.286,6.779-17.977,7.312-24.699
				C368.539,212.273,364.506,205.081,364.506,205.081z"/>
			<g>
				<path style="fill:#27DEBF;" d="M365.199,204.734c0,0-5.995,0-9.578,3.561c-3.056,3.037-3.464,7.925-4.309,17.568
					c-0.636,7.253-2.066,12.643-2.762,15.027c-0.716,2.451-10.885,16.567-10.885,16.567s4.133,6.164,8.289,9.447
					c0,0,9.326-7.688,14.072-14.131c4.746-6.443,7.93-24.74,7.93-24.74S370.426,213.986,365.199,204.734z"/>
				<path style="opacity:0.35;" d="M365.199,204.734c0,0-5.995,0-9.578,3.561c-3.056,3.037-3.464,7.925-4.309,17.568
					c-0.636,7.253-2.066,12.643-2.762,15.027c-0.716,2.451-10.885,16.567-10.885,16.567s4.133,6.164,8.289,9.447
					c0,0,9.326-7.688,14.072-14.131c4.746-6.443,7.93-24.74,7.93-24.74S370.426,213.986,365.199,204.734z"/>
			</g>
			<g>
				<path style="fill:#27DEBF;" d="M338.136,256.79c0,0,2.423,5.135,8.565,9.49c0,0-3.299,2.803-5.084,3.918
					c0,0-4.906-1.743-7.882-8.486L338.136,256.79z"/>
				<path style="opacity:0.5;" d="M338.136,256.79c0,0,2.423,5.135,8.565,9.49c0,0-3.299,2.803-5.084,3.918
					c0,0-4.906-1.743-7.882-8.486L338.136,256.79z"/>
				<path style="fill:#263238;" d="M336.35,261.348c0.174,0.366,0.613,0.522,0.979,0.348c0.366-0.174,0.522-0.613,0.348-0.979
					c-0.174-0.366-0.613-0.522-0.979-0.348C336.331,260.543,336.175,260.981,336.35,261.348z"/>
			</g>
		</g>
	</g>
</g>
<g id="Character_2">
	<g id="Character_16_">
		<g id="XMLID_562_">
			<path id="XMLID_563_" style="fill:#263238;" d="M238.944,78.87h15.301c12.333,0,22.331-9.998,22.331-22.331l0,0
				c0-9.82-7.961-17.781-17.781-17.781h-2.071c-9.82,0-17.781,7.961-17.781,17.781V78.87z"/>
		</g>
		<path id="XMLID_561_" style="fill:#B16668;" d="M237.177,91.139c-3.764,7.182-7.339,15.937-10.127,18.843
			c-5.296,2.463-17.395,7.071-22.263,7.705c-0.863,0.112-1.73-0.108-2.443-0.575c-1.914-1.254-3.394-1.458-5.412-2.156
			c-1.58-0.547-2.249-1.301-2.546-1.014c-0.382,0.369-0.797,1.417,0.165,2.503c0.484,0.546,1.365,1.142,2.501,1.871
			c0,0-3.481,0.929-6.59,0.113c-4.213-1.106-6.204,0.92-3.354,5.495c1.021,1.638,5.038,4.261,13.18,3.553
			c2.346-0.204,5.731-0.4,8.651-1.023c7.81-1.667,16.149-4.104,21.486-5.698c1.347-0.402,3.752-1.96,5.184-3.593
			c8.978-10.234,13.386-19.305,17.322-25.932l-2.861-9.887C243.71,81.147,240.416,84.959,237.177,91.139z"/>
		<path style="fill:#263238;" d="M250.07,81.344c-4.901-0.36-6.764,0.551-8.991,2.743c-5.352,5.265-13.507,25.279-13.643,25.448
			c-0.136,0.169-6.051,2.857-6.051,2.857s3.154,5.292,2.424,10.296c0,0,5.793-1.275,7.866-2.068
			c2.073-0.793,2.804-1.341,4.755-3.597c1.951-2.256,12.854-15.18,12.854-15.18L250.07,81.344z"/>
		<g id="Character_13_">
			<g id="XMLID_641_">
				<path style="fill:#37474F;" d="M239.547,103.726c0,0,1.212,5.355,0.846,10.659c-0.324,4.7-3.666,13.313-3.666,13.313
					s2.632,2.395,9.796,1.273c5.826-0.912,3.768-18.495,0.417-21.901C243.59,103.664,239.547,103.726,239.547,103.726z"/>
			</g>
			<g id="XMLID_413_">
				<g id="XMLID_637_">
					<path id="XMLID_639_" style="fill:#263238;" d="M279.895,253.714c0.19,1.406,0.594,3.048,0.669,7.027
						c0.081,4.266,0.865,5.78,0.968,9.281c0.118,4-0.572,5.497-2.195,7.745c-1.624,2.248-5.884,4.288-7.684,0.488
						c-1.822-3.846-1.569-6.29-0.993-10.214c0.595-4.056,0.671-6.297,1.016-9.391c0.304-2.727,0.668-4.799,0.668-4.799
						L279.895,253.714z"/>
					<path id="XMLID_638_" style="fill:#B16668;" d="M267.786,220.173l14.051-0.255c-0.209,9.38-1.699,24.995-1.943,33.796
						c-0.046,1.657,0.042,12.873-0.583,16.282c-0.939,5.121-7.018,4.43-7.34,1.365c-0.323-3.065,0.391-16.16,0.372-17.51
						c0.053-5.644-2.592-20.375-3.979-30.508C268.296,222.845,267.851,220.658,267.786,220.173z"/>
				</g>
				<g id="XMLID_417_">
					<path id="XMLID_421_" style="fill:#263238;" d="M247.135,246.415c0,0,0.727,0.042,0.841,0.633
						c0.136,0.704,0.167,1.817,0.46,2.973c0.407,1.607,0.745,4.254,0.501,5.564c-0.243,1.31-3.234,3.261-5.278,3.604
						c-2.045,0.343-4.931,2.364-6.533,3.872c-1.963,1.847-6.199,3.593-9.084,3.572c-3.414-0.025-5.793-1.137-6.918-2.964
						c-1.175-1.909,1.025-2.049,4.926-4.58c0.886-0.575,1.894-1.225,3.029-1.966c6.18-4.037,8.443-6.201,10.191-10.238
						L247.135,246.415z"/>
					<path id="XMLID_419_" style="fill:#B16668;" d="M239.221,244.218c0.104-2.904-1.385-24.301-1.385-24.301l12.087,1.361
						c-2.858,17.056-3.089,22.868-2.763,25.349l0,0c0.022,0.065,0.079,0.302,0.075,0.714c-0.012,3.314-3.751,5.101-6.669,7.31
						c-1.152,0.873-4.114,3.562-7.585,4.744c-2.245,0.764-6.397,1.054-6.93-0.31c3.55-2.711,8.381-6.253,11.204-9.348
						C238.604,248.26,239.117,247.123,239.221,244.218z"/>
				</g>
				<path id="XMLID_416_" style="fill:#455A64;" d="M271.776,118.924c1.583,2.241,6.448,8.532,8.843,18.211
					c3.987,16.111-2.279,50.581-2.279,50.581c0.198,2.337,2.87,6.936,3.866,17.221c1.176,12.154-2.171,44.688-2.171,44.688
					s-3.211,2.401-7.868,0.168c0,0-8.507-47.805-10.032-59.888c-1.33-10.546-4.037-32.453-4.037-32.453l-6.09,32.396
					c0,0,0.849,5.908,1.285,10.408c0.688,7.108-6.232,42.78-6.232,42.78s-3.239,1.709-7.84-0.153c0,0-3.067-46.086-3.709-54.648
					c-0.661-8.81,1.627-29.35,3.315-45.697c0.509-4.928,2.849-18.034,3.719-22.256L271.776,118.924z"/>
				<path id="XMLID_414_" style="opacity:0.6;fill:#263238;" d="M258.099,157.452l-1.452-9.98c0,0-5.836-0.063-11.743-3.797
					c0,0,3.618,4.911,9.832,5.5l0.915,8.929l-2.905,27.827L258.099,157.452z"/>
			</g>
			<g id="XMLID_410_">
				<g id="XMLID_411_">
					<path id="XMLID_412_" style="fill:#27DEBF;" d="M241.977,108.275c0.153,2.932,0.57,12.006,0.57,12.006
						c11.968,8.102,29.229-1.358,29.229-1.358l2.491-17.013c0,0-6.245-8.744-0.384-17.955l-9.355-1.848l-11.149-0.914l-3.309,0.15
						c-3.656,2.682-9.274,8.568-10.448,11.574C238.424,95.986,236.66,102.014,241.977,108.275z"/>
				</g>
			</g>
			<g id="XMLID_403_" style="opacity:0.6;">
				<g id="XMLID_405_">
					<path id="XMLID_407_" style="fill:#FFFFFF;" d="M241.977,108.275c0.153,2.932,0.57,12.006,0.57,12.006
						c11.968,8.102,29.229-1.358,29.229-1.358l2.491-17.013c0,0-6.245-8.744-0.384-17.955l-9.355-1.848l-11.149-0.914l-3.309,0.15
						c-3.656,2.682-9.274,8.568-10.448,11.574C238.424,95.986,236.66,102.014,241.977,108.275z"/>
				</g>
			</g>
			<g id="XMLID_401_">
				<path style="fill:#37474F;" d="M265.144,82.229c0,0,10.585,0.467,12.598,1.428c2.013,0.961,5.36,6.744,2.362,15.159
					c-2.998,8.415-5.713,18.293-5.406,20.282c0.307,1.989,7.457,12.261,7.457,12.261c-2.078,1.343-4.283,2.734-6.58,3.16
					l-3.667-8.004l0.86,8.506c0,0-6.594,1.598-11.307,1.188C261.46,136.209,257.658,104.009,265.144,82.229z"/>
			</g>
		</g>
		<path id="XMLID_546_" style="fill:#263238;" d="M271.319,38.759l-1.215,4.662c1.302,0.385,2.628-0.346,2.964-1.634
			C273.404,40.499,272.621,39.144,271.319,38.759z"/>
		<path id="XMLID_545_" style="fill:#263238;" d="M275.322,43.007l-4.814,0.176c0.005,1.357,1.087,2.418,2.416,2.37
			C274.254,45.504,275.327,44.364,275.322,43.007z"/>
		<g id="XMLID_523_">
			<g id="XMLID_526_">
				<g id="XMLID_541_">
					<path id="XMLID_542_" style="fill:#B16668;" d="M245.922,47.207c-1.988,1.175-4.444,6.174-4.202,16.653
						c0.206,8.882,3.084,11.075,4.53,11.708c1.446,0.632,4.233,0.248,6.944-0.204v5.33c0,0-3.746,4.351-3.51,6.795
						c0.236,2.444,5.409,3.022,8.914,0.634c3.505-2.388,5.752-6.022,5.752-6.022V68.288c0,0,1.482,1.573,4.108-0.227
						c2.613-1.791,2.842-5.137,1.239-7.029c-1.137-1.341-4.042-1.44-5.438,0.649c0,0-3.639-0.32-9.395-3.482
						C249.108,55.037,246.71,50.019,245.922,47.207z"/>
				</g>
				<g id="XMLID_539_">
					<path id="XMLID_540_" style="fill:#263238;" d="M252.631,61.629c-0.032,0.64,0.441,1.182,1.057,1.212
						c0.616,0.029,1.141-0.466,1.174-1.106c0.032-0.64-0.441-1.183-1.057-1.212C253.189,60.494,252.663,60.989,252.631,61.629z"/>
				</g>
				<g id="XMLID_535_">
					<path id="XMLID_538_" style="fill:#9A4A4D;" d="M251.339,69.158l-2.594,0.827c0.215,0.742,0.971,1.159,1.687,0.931
						C251.148,70.687,251.554,69.9,251.339,69.158z"/>
				</g>
				<g id="XMLID_533_">
					<path id="XMLID_534_" style="fill:#263238;" d="M242.729,58.199l2.26-1.567c-0.412-0.645-1.253-0.818-1.877-0.385
						C242.488,56.68,242.316,57.554,242.729,58.199z"/>
				</g>
				<g id="XMLID_531_">
					<path id="XMLID_532_" style="fill:#263238;" d="M243.25,60.821c-0.032,0.64,0.441,1.182,1.058,1.211
						c0.616,0.029,1.141-0.466,1.174-1.106c0.032-0.64-0.441-1.182-1.057-1.212C243.808,59.686,243.282,60.181,243.25,60.821z"/>
				</g>
				<g id="XMLID_529_">
					<polygon id="XMLID_530_" style="fill:#9A4A4D;" points="249.45,60.182 249.272,66.905 245.734,65.809 					"/>
				</g>
				<g id="XMLID_527_">
					<path id="XMLID_528_" style="fill:#9A4A4D;" d="M253.194,75.364c2.856-0.375,8.733-2.063,9.648-4.386
						c0,0-0.305,1.46-2.06,2.964c-1.755,1.505-7.588,3.199-7.588,3.199V75.364z"/>
				</g>
			</g>
		</g>
		<path id="XMLID_522_" style="fill:#B16668;" d="M297.01,120.611c-1.846-7.21-9.694-22.991-11.921-28.782
			c-2.544-6.615-6.921-8.954-11.651-9.021c-1.739,2.245-2.468,13.511,2.892,19.966c2.282,4.805,9.125,18.25,9.125,18.25
			c-0.177,1.296-4.957,18.028-6.991,22.431c-0.36,0.78-1.014,1.384-1.802,1.727c-2.113,0.92-4.587,3.23-6.27,4.537
			c-1.317,1.023-2.332,1.175-2.239,1.577c0.12,0.516,0.815,1.428,2.275,1.21c0.735-0.109,2.944-1.135,4.184-1.688
			c0,0-1.966,3.168-4.184,5.726c-2.84,3.274-2.742,6.08,2.789,6.166c4.184,0.065,6.39-2.289,10.098-9.457
			c1.068-2.065,2.242-5.171,3.52-7.827c3.23-6.709,5.272-9.492,7.037-13.784C296.656,124.875,297.722,123.391,297.01,120.611z"/>
		<path style="fill:#263238;" d="M271.324,82.637c5.237-0.049,9.106,0.423,12.125,4.858c3.019,4.434,12.36,27.738,13.397,30.758
			c1.038,3.019,1.726,5.484-2.628,12.554c0,0-4.853-0.148-10.406-3.662l1.052-6.062l-9.152-17.738
			C275.712,103.346,269.672,94.479,271.324,82.637z"/>
	</g>
</g>
<g id="Character_1">
	<g id="Character_15_">
		<g>
			<path id="XMLID_389_" style="fill:#FFA8A7;" d="M110.104,172.767c5.951,1.976,7.406,2.413,11.528,8.824
				c3.956,6.153,8.032,17.528,11.573,26.653c6.545-1.859,20.431-5.094,25.014-7.757s4.128-4.503,5.985-6.212
				c2.155-1.984,4.414-6.73,6.173-4.126c1.188,1.759-1.268,2.944-1.115,5.167c0.154,2.223,6.893-3.048,9.715-5.022
				c1.873-1.31,6.213,2.794,4.471,7.249c-1.542,3.947-4.009,6.445-8.433,8.316c-4.677,1.978-7.116,2.967-12.985,5.602
				c-6.132,2.753-31.398,13.94-33.895,12.378c-5.696-2.814-10.906-20.419-14.352-28.028
				C110.337,188.203,112.605,180.371,110.104,172.767z"/>
			<path id="XMLID_385_" style="fill:#37474F;" d="M108.667,172.035c2.548,3.359,1.498,2.003,2.286,7.18
				c0.635,4.178,9.41,44.364,17.355,46.03c3.486,0.731,28.635-10.771,34.734-14.133c-2.059-3.042-4.12-6.793-4.823-10.626
				c-7.307,2.857-19.904,5.675-24.433,7.079c-2.093-5.84-4.653-11.837-7.055-17.728
				C122.157,178.621,119.573,170.644,108.667,172.035z"/>
		</g>
		<g id="XMLID_372_">
			
				<rect id="XMLID_384_" x="74.554" y="354.146" transform="matrix(-1 -1.224647e-16 1.224647e-16 -1 158.9055 725.0642)" style="fill:#FFA8A7;" width="9.798" height="16.773"/>
			<polygon id="XMLID_383_" style="fill:#FFA8A7;" points="110.967,360.488 121.659,360.856 122.194,341.475 110.082,341.079 			"/>
			<path id="XMLID_382_" style="fill:#263238;" d="M75.759,240.018c0,8.918-0.615,60.771-0.615,60.771
				c-0.217,2.566-2.688,7.128-2.88,16.372c-0.279,13.404,1.783,44.978,1.783,44.978s4.534,2.649,10.398,0.205
				c0,0,7.335-44.66,9.009-57.928c1.46-11.579,5.632-41.876,5.632-41.876l6.308,39.355c0,0-1.086,6.305-0.522,14.24
				c0.436,6.137,5.082,36.642,5.082,36.642s6.079,2.271,12.466,0.113c0,0,0.973-47.532,1.081-53.163
				c0.123-6.42-2.677-61.64-2.677-61.64L75.759,240.018z"/>
			<path id="XMLID_378_" style="fill:#263238;" d="M84.352,366.082c0,0-0.002-1.4,0-1.4c0.525-0.011,0.851,0.51,1.051,1.772
				c0.144,0.902,0.276,1.584,0.573,2.771c0.454,1.815,0.862,2.924,1.711,5.015c1.385,3.414,2.548,4.685,5.72,8.674
				c0.753,0.947,2.451,2.45,3.043,3.505c0.592,1.054,0.801,3.988-0.206,4.658c-3.699,2.466-9.317,2.535-13.29,1.37
				c-3.057-0.896-5.263-3.338-5.77-6.483c-0.146-0.903-0.092-1.827-0.195-2.736c-0.236-2.073-1.278-3.967-2.454-5.691
				c-0.682-1-1.424-1.977-1.882-3.098c-0.823-2.014-0.163-4.279,0.363-6.285c0.454-1.732,0.946-3.637,1.538-3.475
				c0.002,0.211,0,1.068,0,1.068c0.711,0.788,2.679,1.571,4.899,1.656C80.886,367.46,84.364,367.176,84.352,366.082z"/>
			<path id="XMLID_377_" style="fill:#263238;" d="M121.772,357.557c0.555,0.019,1.008,0.803,2.233,2.129
				c1.481,1.603,3.903,3.331,6.293,4.528c4.006,2.005,11.794,5.09,15.318,6.678c2.202,0.991,2.099,3.651-0.177,5.165
				c-2.276,1.513-7.771,2.604-14.37,1.129c-3.594-0.804-8.274-4.124-11.235-3.945c-2.962,0.179-8.504,0.137-10.69-1.371
				c-2.186-1.507-1.311-4.725-0.693-7.49c0.674-3.018,1.352-7.725,2.351-7.519l0.051,1.126c1.286,1.947,8.037,2.655,10.862,1.221
				L121.772,357.557z"/>
			<path id="XMLID_376_" d="M99.086,262.541c0,0,8.331-2.717,13.872-8.071c0,0-2.509,4.698-9.972,9.071l1.789,34.493L99.086,262.541
				z"/>
		</g>
		<g id="XMLID_350_">
			<path id="XMLID_371_" style="fill:#455A64;" d="M91.859,171.878c-1.984,0.477-6.769,1.063-10.278,2.068
				c-2.586,0.741-3.672,3.896-4.212,6.271c-1.727,7.602-2.026,23.55-2.026,23.55l-0.099,37.142
				c6.432,4.685,32.864,7.064,46.399-2.821c0,0-1.656-44.233-1.656-51.118c0-6.885-3.826-15.156-14.389-15.77L91.859,171.878z"/>
			<g id="XMLID_351_">
				<path id="XMLID_363_" style="fill:#FFA8A7;" d="M63.643,224.101c0,0,8.194,12.446,9.604,14.074
					c1.41,1.628,2.368,1.086,3.891,0.362c1.523-0.724,4.415-1.65,5.695-1.99c2.505-0.663,3.045,1.809,0.564,3.572
					c-1.794,1.275-3.848,1.832-2.989,2.879c0.859,1.047,3.511,2.879,5.977,3.919c6.047,2.55,6.261,4.107,5.148,6.202
					c-0.97,1.824-4.577,6.803-15.394,2.159c-4.463-1.916-10.648-8.686-13.612-12.197c-4.277-5.068-10.134-14.927-10.134-14.927
					L63.643,224.101z"/>
				<path id="XMLID_358_" style="fill:#37474F;" d="M81.581,173.945c-9.857-0.842-12.403,4.223-19.401,16.644
					c-6.137,10.894-14.208,24.44-14.437,30.048c-0.074,1.82,7.841,14.46,13.494,20.883c4.898-0.229,8.455-2.118,10.768-5.012
					c-1.346-2.249-8.621-15.432-8.621-15.432l12.998-20.062c0,0,3.885-4.38,5.298-10.596
					C83.362,183.021,82.697,175.661,81.581,173.945z"/>
			</g>
		</g>
		<g id="XMLID_262_">
			<g id="XMLID_332_">
				<path id="XMLID_349_" style="fill:#263238;" d="M94.121,142.251c0,6.846,5.55,12.395,12.395,12.395
					c6.846,0,12.396-5.549,12.396-12.395c0-6.846-5.55-12.396-12.396-12.396C99.67,129.856,94.121,135.405,94.121,142.251z"/>
				<path id="XMLID_346_" style="fill:#263238;" d="M85.089,151.064c0,0,2.008,9.437,2.814,10.987
					c0.805,1.551,2.47,1.991,2.47,1.991l-0.14-6.638L85.089,151.064z"/>
				<path id="XMLID_345_" style="fill:#263238;" d="M87.487,136.177c0,0-1.989-0.125-3.675,1.599
					c-1.653,1.691-0.781,8.105,1.278,13.288l3.784,0.434L87.487,136.177z"/>
				<path id="XMLID_338_" style="fill:#FFA8A7;" d="M90.008,151.502c-0.759,0.453-1.841-1.004-2.777-1.983
					c-0.936-0.979-3.99-2.317-5.514,0.894c-1.552,3.272,1.345,7.595,3.75,8.349c4.144,1.301,4.766-1.357,4.766-1.357l0.306,15.405
					l0,0c2.866,3.674,9.302,7.991,12.768,7.375c2.766-0.492,3.369-5.165,0.725-8.227l-0.012-4.549c0,0,3.755,0.57,5.586,0.287
					c3.048-0.471,4.965-2.876,5.889-6.174c1.485-5.298,2.049-9.577,0.789-19.997c-1.381-11.421-14.665-11.54-21.839-7.025
					C87.272,139.013,90.008,151.502,90.008,151.502z"/>
				<path id="XMLID_335_" style="fill:#263238;" d="M117.621,136.878c-0.537,1.063-1.578,1.952-2.56,2.495
					c-2.647,1.465-5.755,2.061-8.76,1.734c-3.154-0.344-6.029-1.864-8.826-3.274c-0.256,1.032-0.502,2.193-1.429,3.138
					c-1.726,1.76-2.718,1.796-3.396,2.229c-0.261,2.054-0.252,4.693-0.378,6.759c-0.043,0.698-0.04,4.332-1.695,3.294
					c-0.541-0.339-1.048-1.164-1.443-1.619c-0.618-0.713-1.205-1.479-1.904-2.116c-0.488-0.444-0.457-1.478-0.483-2.07
					c-0.054-1.236,0.027-2.481,0.126-3.713c0.103-1.277,0.319-2.548,0.429-3.82c0.064-0.738-0.307-1.394-0.508-2.114
					c-0.221-0.787-0.367-1.601-0.323-2.422c0.136-2.557,2.097-4.729,4.395-5.859c3.216-1.581,7.105-1.828,10.614-1.541
					c3.136,0.257,6.374,0.622,9.364-0.358c1.155-0.379,2.242-0.95,3.412-1.28c1.17-0.33,2.49-0.391,3.541,0.218
					c2.264,1.313,2.406,5.338,0.171,6.709c-0.153,0.094-0.326,0.191-0.383,0.361c-0.063,0.189,0.043,0.388,0.126,0.569
					C118.148,135.144,118.033,136.062,117.621,136.878z"/>
				<path id="XMLID_334_" style="fill:#263238;" d="M86.741,137.512l-4.587-2.462c0.651-1.314,2.206-1.829,3.472-1.149
					C86.892,134.581,87.392,136.198,86.741,137.512z"/>
				<path id="XMLID_333_" style="fill:#F28F8F;" d="M104.02,167.408c0,0-6.803-1.371-9.181-2.635
					c-1.592-0.846-2.903-2.313-3.288-3.253c0,0,0.446,2.018,1.868,3.837c1.739,2.224,10.601,3.861,10.601,3.861L104.02,167.408z"/>
			</g>
			<g id="XMLID_307_">
				<path id="XMLID_325_" style="fill:#263238;" d="M103.329,149.088c0,0.837-0.653,1.515-1.459,1.512
					c-0.806-0.002-1.459-0.683-1.459-1.52c0-0.837,0.653-1.514,1.459-1.512C102.676,147.571,103.329,148.251,103.329,149.088z"/>
				<path id="XMLID_314_" style="fill:#263238;" d="M101.87,144.145l-3.02,1.667c-0.445-0.868-0.13-1.944,0.704-2.404
					C100.388,142.947,101.425,143.277,101.87,144.145z"/>
				<path id="XMLID_313_" style="fill:#F28F8F;" d="M103.446,159.015l3.374,1.266c-0.334,0.967-1.36,1.468-2.292,1.118
					C103.597,161.05,103.112,159.982,103.446,159.015z"/>
				<path id="XMLID_310_" style="fill:#263238;" d="M115.374,145.36l-2.754-2.121c0.562-0.789,1.633-0.953,2.394-0.367
					C115.774,143.458,115.936,144.571,115.374,145.36z"/>
				<path id="XMLID_309_" style="fill:#263238;" d="M114.752,148.814c0,0.81-0.632,1.465-1.412,1.462
					c-0.779-0.002-1.411-0.66-1.411-1.471c0-0.81,0.632-1.465,1.411-1.463C114.12,147.345,114.752,148.004,114.752,148.814z"/>
				<polygon id="XMLID_308_" style="fill:#F28F8F;" points="107.195,147.653 107.68,156.542 112.321,154.96 				"/>
			</g>
			<g id="XMLID_282_">
				<path id="XMLID_305_" style="fill:#27DEBF;" d="M108.868,179.207c-0.866,2.057-2.463,2.896-5.359,3.221
					c-2.896,0.325-6.415-1.11-8.012-2.788l3.603-3.586l4.567,3.441l0.389-3.834L108.868,179.207z"/>
				<path id="XMLID_391_" style="opacity:0.2;" d="M108.868,179.207c-0.866,2.057-2.463,2.896-5.359,3.221
					c-2.896,0.325-6.415-1.11-8.012-2.788l3.603-3.586l4.567,3.441l0.389-3.834L108.868,179.207z"/>
				<g id="XMLID_287_">
					<path id="XMLID_301_" style="fill:#27DEBF;" d="M106.599,178.084c0,0,0.714,1.986,0.476,3.855
						c-0.255,2.001-1.286,3.212-1.286,3.212s-1.15,0.913-3.113,0.338c-1.534-1.415-3.08-3.685-2.963-6.446l3.954,0.451
						L106.599,178.084z"/>
					<path id="XMLID_292_" style="fill:#27DEBF;" d="M105.788,185.151c0,0,4.687,25.869,4.877,27.957
						c0.19,2.088-2.692,9.505-4.479,9.568c-1.787,0.063-5.296-6.652-5.348-8.55c-0.053-1.898,1.838-28.638,1.838-28.638
						L105.788,185.151z"/>
					<path id="XMLID_290_" style="fill:#37474F;" d="M102.675,185.49c0,0,1.598,0.79,3.113-0.338l0.074,0.409
						c0,0-1.31,1.187-3.237,0.641L102.675,185.49z"/>
				</g>
				<g id="XMLID_283_">
					<g id="XMLID_284_">
						<path id="XMLID_286_" style="fill:#37474F;" d="M103.666,179.495l-13.194-10.061l-0.052-2.639c0,0-3.089,0.82-3.779,6.238
							c1.881,4.371,5.291,8.101,10.298,10.956l2.773-4.945L103.666,179.495z"/>
						<path id="XMLID_285_" style="fill:#37474F;" d="M104.02,168.064c0,0,3.101,1.44,4.425,3.624
							c1.322,2.179,1.313,9.266,1.313,9.266l-3.159-2.87l-2.933,1.411c0.282-2.777,0.366-7.538,0.366-7.538L104.02,168.064z"/>
					</g>
				</g>
			</g>
		</g>
	</g>
</g>
</svg>
